<?xml version="1.0" encoding="utf-8"?>
<!-- Generator: Adobe Illustrator 23.0.0, SVG Export Plug-In . SVG Version: 6.00 Build 0)  -->
<svg version="1.1" xmlns="http://www.w3.org/2000/svg" xmlns:xlink="http://www.w3.org/1999/xlink" x="0px" y="0px"
	 viewBox="0 0 792 1224" style="enable-background:new 0 0 792 1224;" xml:space="preserve">
<style type="text/css">
	.st0{fill:#F8BCCB;}
	.st1{fill:#D9E5ED;}
	.st2{fill:#F68B32;}
	.st3{fill:#F9ED32;}
	.st4{fill:#D1D3D4;}
	.st5{fill:#FFFFFF;}
	.st6{fill:none;stroke:#F8BCCB;stroke-miterlimit:10;}
	.st7{fill:#70CDE2;}
	.st8{fill:#2F2F30;stroke:#000000;stroke-miterlimit:10;}
	.st9{fill:none;}
	.st10{fill:none;stroke:#FFFFFF;stroke-miterlimit:10;}
	.st11{fill:#046C96;}
	.st12{opacity:0.51;fill:#54A8B4;}
	.st13{fill:#C0DCF3;}
	.st14{fill:#9BAFBA;}
	.st15{opacity:0.18;fill:none;stroke:#FFFFFF;stroke-miterlimit:10;}
	.st16{opacity:0.4;fill:none;stroke:#FFFFFF;stroke-miterlimit:10;}
	.st17{opacity:0.15;fill:none;stroke:#FFFFFF;stroke-width:3;stroke-miterlimit:10;}
	.st18{opacity:0.15;fill:none;stroke:#FFFFFF;stroke-width:8;stroke-miterlimit:10;}
	.st19{fill:#FCBB82;}
	.st20{fill:#4764AF;}
	.st21{fill:#3C2415;}
	.st22{fill:#C49A6C;}
	.st23{fill:#ED1C24;}
	.st24{fill:none;stroke:#FFFFFF;stroke-width:0.75;stroke-miterlimit:10;}
	.st25{fill:none;stroke:#FFFFFF;stroke-width:0.5;stroke-miterlimit:10;}
	.st26{opacity:0.46;fill:none;stroke:#FFFFFF;stroke-miterlimit:10;}
	.st27{fill:#76D0F0;}
	.st28{fill:#D7F0F9;}
	.st29{fill:#BCBEC0;}
	.st30{fill:none;stroke:#F1F2F2;stroke-miterlimit:10;}
	.st31{fill:none;stroke:#F1F2F2;stroke-linecap:round;stroke-miterlimit:10;}
	.st32{fill:#FFFFFF;stroke:#6FC5EF;stroke-miterlimit:10;}
	.st33{fill:none;stroke:#6FC5EF;stroke-miterlimit:10;}
	.st34{fill:none;stroke:#425AA8;stroke-width:2;stroke-miterlimit:10;}
	.st35{fill:#FFF4EB;stroke:#000000;stroke-width:0.15;stroke-miterlimit:10;}
	.st36{fill:none;stroke:#000000;stroke-width:0.15;stroke-miterlimit:10;}
	.st37{fill:#120B09;stroke:#000000;stroke-width:0.15;stroke-miterlimit:10;}
	.st38{fill:#8B5E3C;}
	.st39{fill:#451C0D;}
	.st40{fill:#EF442A;}
	.st41{fill:#F8ED48;}
	.st42{opacity:0.48;}
	.st43{fill:#E06E52;stroke:#FFD983;stroke-width:0.5;stroke-miterlimit:10;}
	.st44{fill:#FFFFFF;stroke:#000000;stroke-width:0.25;stroke-miterlimit:10;}
	.st45{fill:#3E190B;}
	.st46{fill:none;stroke:#FFD983;stroke-width:0.5;stroke-miterlimit:10;}
	.st47{fill:#FFFFFF;stroke:#BCBEC0;stroke-width:0.25;stroke-miterlimit:10;}
	.st48{stroke:#BCBEC0;stroke-width:0.25;stroke-miterlimit:10;}
	.st49{fill:#133E1D;stroke:#16120B;stroke-width:0.5;stroke-miterlimit:10;}
	.st50{fill:#CC5A27;}
	.st51{stroke:#000000;stroke-width:0.5;stroke-miterlimit:10;}
	.st52{fill:#E36F25;}
	.st53{fill:#FFFFFF;stroke:#000000;stroke-width:0.5;stroke-miterlimit:10;}
	.st54{fill:#FCF175;}
	.st55{fill:#7E5723;stroke:#754C29;stroke-width:0.25;stroke-miterlimit:10;}
	.st56{fill:#0C8843;}
	.st57{fill:#754C29;stroke:#7E5723;stroke-width:0.75;stroke-miterlimit:10;}
	.st58{fill:#841E19;}
	.st59{fill:#A97C50;}
	.st60{fill:#67BD45;}
	.st61{fill:#67BD45;stroke:#0EA64A;stroke-width:0.25;stroke-miterlimit:10;}
	.st62{fill:#006838;}
	.st63{opacity:0.28;}
	.st64{stroke:#000000;stroke-miterlimit:10;}
	.st65{fill:#414042;stroke:#000000;stroke-miterlimit:10;}
	.st66{fill:#FDBA40;}
	.st67{fill:#F68825;}
	.st68{display:none;}
	.st69{display:inline;}
</style>
<g id="back_ground">
	<rect x="271.4" class="st0" width="520.6" height="520.2"/>
	<polygon class="st1" points="0,0 0,212.7 334.7,21.4 297.7,0 	"/>
	<g>
		<ellipse transform="matrix(0.866 -0.5 0.5 0.866 41.493 345.1682)" class="st2" cx="664.8" cy="95.2" rx="25.9" ry="44.9"/>
		<ellipse transform="matrix(0.866 -0.5 0.5 0.866 39.6002 343.2755)" class="st3" cx="660.4" cy="97.7" rx="25.9" ry="44.9"/>
	</g>
	<g>
		<path class="st4" d="M663.6,146.3c0-23.5-16.6-52.1-37-63.9c-0.5-0.3-0.9-0.5-1.4-0.8c-3.8-19.4-15.1-38.3-28.4-46
			c-12.3-7.1-22.8-2.6-27.4,9.9c-4.4-4.7-9.3-8.8-14.4-11.7C534.6,22,518,31.5,518,55c0,3.8,0.4,7.7,1.2,11.6l141,89.2
			C660.3,154.6,663.6,147.5,663.6,146.3z"/>
		<path class="st5" d="M660.3,151.3c0-23.5-16.6-52.1-37-63.9c-0.5-0.3-0.9-0.5-1.4-0.8c-3.8-19.4-15.1-38.3-28.4-46
			c-12.3-7.1-22.8-2.6-27.4,9.9c-4.4-4.7-9.3-8.8-14.4-11.7c-20.4-11.8-37-2.3-37,21.2c0,3.8,0.4,7.7,1.2,11.6l144.2,83.3
			C660.2,153.7,660.3,152.6,660.3,151.3z"/>
	</g>
	<g>
		<path class="st4" d="M727.1,267.3c0-14.4-10.2-32-22.7-39.2c-0.3-0.2-0.6-0.3-0.9-0.5c-2.4-11.9-9.3-23.5-17.4-28.2
			c-7.5-4.3-14-1.6-16.8,6.1c-2.7-2.9-5.7-5.4-8.9-7.2c-12.5-7.2-22.7-1.4-22.7,13c0,2.3,0.3,4.7,0.8,7.1l86.5,54.7
			C725.1,272.4,727.1,268.1,727.1,267.3z"/>
		<path class="st5" d="M725,270.4c0-14.4-10.2-32-22.7-39.2c-0.3-0.2-0.6-0.3-0.9-0.5c-2.4-11.9-9.3-23.5-17.4-28.2
			c-7.5-4.3-14-1.6-16.8,6.1c-2.7-2.9-5.7-5.4-8.9-7.2c-12.5-7.2-22.7-1.4-22.7,13c0,2.3,0.3,4.7,0.8,7.1l88.4,51.1
			C725,271.9,725,271.2,725,270.4z"/>
	</g>
	<rect x="0" class="st6" width="792" height="1224"/>
</g>
<g id="glacier">
	<path class="st7" d="M13.3,455.9"/>
	<path class="st8" d="M198.7,153.9C198.7,153.9,198.7,153.9,198.7,153.9L198.7,153.9L198.7,153.9z"/>
	<polygon class="st7" points="127.4,141.1 5.3,69.1 0,65.6 0,197.1 12.7,205.9 	"/>
	<line class="st9" x1="19.6" y1="198" x2="19.6" y2="198"/>
	<path class="st10" d="M109.8,147.7"/>
	<path class="st10" d="M19.6,198"/>
	<polygon class="st11" points="12.7,459.2 13.1,540 49.1,602.4 13.4,664.6 13.4,747.7 71.8,781.7 49.1,851.8 49.1,888.7 85.1,955.7 
		121.1,973.8 121.1,1000 139.1,1028.5 121.1,1059.7 193.1,1101.2 193.1,1142.8 301.1,1163.6 337.1,1223.3 409.1,1184.4 
		409.1,1101.2 444.4,1080.9 439.5,705.6 	"/>
	<polygon class="st12" points="444.4,1080.9 396,1016 391.2,971 378.4,971 284.2,892 284.2,882 251.2,866 228.5,766 131.5,746 
		131.5,723.7 128.6,643.4 128.6,635.4 81.2,576 44.2,530 51.2,494.3 107.7,402 331.6,271.7 763.5,518.5 523.2,834.9 	"/>
	<polygon class="st13" points="763.5,518.5 439.5,705.6 445.7,1082.1 482.5,1060.9 482.5,1019.3 590.5,957 590.5,912.7 587.8,833.8 
		662.5,832.3 734.5,790.7 734.5,707.5 770.5,686.8 	"/>
	<polygon class="st14" points="0,88 0,75.4 121.1,145.4 121.1,156.4 	"/>
	<polygon class="st14" points="126.5,148.9 0,75.4 0,65.6 126.5,140.2 	"/>
	<line class="st10" x1="12.7" y1="206.1" x2="109.8" y2="150.9"/>
	<line class="st10" x1="4.2" y1="119.7" x2="37" y2="138.7"/>
	<line class="st10" x1="5.5" y1="149.7" x2="48.7" y2="174.7"/>
	<line class="st10" x1="48.7" y1="125" x2="72.8" y2="138.4"/>
</g>
<g id="whale">
	<g>
		<path d="M233.7,1034.6c0,0-14.9-50.7,13-71.4c19.9-14.8,25.6-41,6.1-52.5c-19.6-11.5-50.9-11.7-60.1-14.9s-17.2,1.4-22.7,6.9
			s-19.6,17.6-29.1,17.1c-9.5-0.5-19.5,15.4-19.5,15.4s-3.1-25.4,5.9-31c9-5.5,25.6-26.6,36.6-26.6s1.8,0,1.8,0s-22.9-1-31.4-5.5
			S86.6,842,102.7,823s48.7-14,54-13.5c5.3,0.5,9.3-7,16.3-9.5c7-2.5,28.6-6.5,33.1-4c4.5,2.5,37.1-33.1,71.7-34.6
			c0,0-16.1,9.8-18.6,28c0,2.1-15,20.7,9,32.7c22.3,11.2,43.1,38.3,20.5,95.9c-2.9,7.3-2.1,19.1,1.6,26c10.9,20.2,26,22,20.5,47.1
			l-14.6-5.4c-20.3-3.2-8.1-18.8-21.6-25.7c1.7,4,1.8,50.6-39,76.2"/>
		<path class="st5" d="M140.7,841c0,0-16,0.3-6.7-7.5c9.2-7.8,30.3-4,31-2.2C165.6,833.1,146.7,834.2,140.7,841z"/>
	</g>
	<line class="st15" x1="292.4" y1="752.8" x2="164.6" y2="916.9"/>
	<line class="st16" x1="254.8" y1="818.9" x2="228.1" y2="853.2"/>
	<line class="st16" x1="251.1" y1="974.3" x2="224.4" y2="1008.6"/>
	<line class="st16" x1="237.8" y1="979.6" x2="211.1" y2="1013.9"/>
	<line class="st16" x1="282.2" y1="945.1" x2="241.5" y2="997.5"/>
	<line class="st17" x1="194.9" y1="838" x2="118.4" y2="936.2"/>
	<line class="st18" x1="266.8" y1="836" x2="190.3" y2="934.3"/>
</g>
<g id="mountains">
	<ellipse class="st19" cx="526.7" cy="122.8" rx="3.6" ry="5"/>
	<path class="st20" d="M498.5,139.1c0,0,12.1,0,14.5-1.5c2.4-1.4,7.8-13,7.8-13s7.5,2.5,9.2,2.9c1.9,0.5-7,13.2-14.4,15.7
		c0,0,4,14.5,3.1,19.9l-22.5-1.1l4.8-14.4c0,0-6.7,3.5-10.5,2l-2-6.3C488.5,143.4,495,143.7,498.5,139.1z"/>
	<ellipse class="st19" cx="485.7" cy="145.4" rx="3.6" ry="5"/>
	<path class="st20" d="M495,170c0,0,5.2-4.3,5.7-9.9s13.9-1.6,13.9-1.6s-1.7,22.5-5.4,26c-3.7,3.6-6.7,5.1-6.7,5.1l-4.7-4.3
		c0,0,9.3-15.1,10.3-16.8c1-1.8-4.6-1.5-4.6-1.5l-7.4,15.1l-6.9-8L495,170z"/>
	<ellipse class="st20" cx="505.9" cy="124.7" rx="11.2" ry="15.3"/>
	<ellipse class="st5" cx="505.9" cy="125.7" rx="8.4" ry="12.7"/>
	<g>
		<polygon class="st21" points="490.1,176.8 488.4,177.7 488.4,137.4 490.1,136.5 		"/>
		<polygon class="st22" points="488.4,177.5 487.6,177 487.6,136.7 488.4,137.2 		"/>
		<path class="st23" d="M464.3,126.8c0,0,8.6,1.1,11.1-4.5s6.4-4.3,9.3-4.3c2.9,0,5.6-3.6,5.6-3.6v23.7c0,0-13.2,1.3-14.9,4.5
			c-1.7,3.2-11.1,4.5-11.1,4.5V126.8z"/>
	</g>
	<ellipse class="st19" cx="506.1" cy="126.2" rx="5.7" ry="8.3"/>
	<polygon class="st7" points="439.5,705.6 12.7,459.2 331.6,271.7 763.5,518.5 	"/>
	<line class="st10" x1="213.7" y1="511.8" x2="247" y2="531.7"/>
	<line class="st24" x1="313.6" y1="617.8" x2="347" y2="637.7"/>
	<line class="st25" x1="118.5" y1="412" x2="151.9" y2="432"/>
</g>
<g id="ice_break">
	<polygon class="st7" points="13.3,455.9 13.8,455.9 13.8,455.9 	"/>
	<polygon class="st7" points="127.1,392 12.7,459.2 12.7,205.9 125.4,141.7 	"/>
	<line class="st26" x1="40" y1="225" x2="40" y2="296.7"/>
	<line class="st26" x1="81.3" y1="225" x2="81.3" y2="349"/>
	<line class="st26" x1="100.3" y1="283.5" x2="100.3" y2="303.4"/>
	<line class="st26" x1="61.6" y1="332.2" x2="61.6" y2="403.5"/>
	<g>
		<polygon class="st1" points="417.6,628 372.2,630.2 369,637 370.4,652.6 413.9,680.6 425.9,675 424.5,659.5 435.6,637.4 
			420.1,627.8 		"/>
		<polygon class="st14" points="418.4,636.4 372.9,638.6 369.7,645.4 371.2,661 414.7,689 426.7,683.4 425.3,667.9 436.3,645.8 
			435.2,633.7 		"/>
		<polygon class="st14" points="435,631.2 435.6,637.4 421.3,666.8 420.3,655.8 		"/>
		<polygon class="st5" points="417,621.1 371.5,623.3 368.3,630.1 369.8,645.7 413.3,673.7 425.3,668.1 423.9,652.6 434.9,630.5 
			419.5,620.8 		"/>
		<polygon class="st5" points="417,621.1 371.5,623.3 368.3,630.1 369.8,645.7 413.3,673.7 425.3,668.1 423.9,652.6 434.9,630.5 
			419.5,620.8 		"/>
	</g>
	<g>
		<polygon class="st1" points="203.1,537.6 191.7,538.1 190.9,539.8 191.2,543.8 202.2,550.8 205.2,549.4 204.8,545.5 207.6,539.9 
			203.7,537.5 		"/>
		<polygon class="st14" points="203.3,539.7 191.9,540.2 191.1,542 191.4,545.9 202.4,552.9 205.4,551.5 205,547.6 207.8,542.1 
			207.5,539 		"/>
		<polygon class="st14" points="207.5,538.4 207.6,539.9 204,547.3 203.8,544.6 		"/>
		<polygon class="st5" points="202.9,535.8 191.5,536.4 190.7,538.1 191.1,542 202,549.1 205,547.6 204.7,543.8 207.4,538.2 
			203.6,535.8 		"/>
		<polygon class="st5" points="202.9,535.8 191.5,536.4 190.7,538.1 191.1,542 202,549.1 205,547.6 204.7,543.8 207.4,538.2 
			203.6,535.8 		"/>
	</g>
	<path class="st14" d="M111.2,399.5l49.4,21.5c0.2,0,0.4,0.1,0.7,0.2l22,9c0.9,0.4,1.4,1.3,1.3,2.2l-2.8,26.1
		c-0.1,0.9,0.4,1.7,1.2,2.1l71.2,36.5c0.6,0.3,1,0.8,1.1,1.4l9.7,41.5c0.1,0.4,0.3,0.7,0.5,1c2,2.1,11.1,11.8,13.6,12.6
		c2.8,0.9,51.9,19.2,51.5,21.6s44.5,14.5,41,18.3c-2.5,2.7-2.9,8.4-3,11.4c0,1.1,0.9,2.1,2,2.2c8.4,0.5,40.9,2.8,40.9,4.6
		c0,2.1,18.9,11.9,20,13.7c1.1,1.8,17.5,4.6,14.7,7.4c-2.8,2.8,5.4,16.2,5.9,19.5c0.5,3.3-9.4,18.1-1.6,20.4s29.8-2.9,29.4,1
		c-0.3,3.1-31,23.8-39.6,31.2l321-188.6c0,0,0,0,0,0L332.4,269c0,0,0,0,0,0L119.9,395"/>
	<path class="st14" d="M331.6,271.7l430.6,246.8L439.4,704.9c8.7-7.4,45.3-30.4,45.6-33.5c0.4-3.9-25.7-5.1-33.5-7.4
		s2.1-17.1,1.6-20.4c-0.5-3.3-8.7-16.7-5.9-19.5c2.8-2.8-13.7-5.6-14.7-7.4c-1.1-1.8-20-11.6-20-13.7c0-1.8-32.5-4-40.9-4.6
		c-1.1-0.1-2-1-2-2.2c0-3,0.5-8.7,3-11.4c3.5-3.8-41.3-15.8-41-18.3S282.8,545.9,280,545c-2.5-0.8-11.6-10.5-13.6-12.6
		c-0.3-0.3-0.4-0.6-0.5-1l-9.7-41.5c-0.1-0.6-0.6-1.1-1.1-1.4l-71.2-36.5c-0.8-0.4-1.3-1.3-1.2-2.1l2.8-26.1c0.1-1-0.4-1.9-1.3-2.2
		l-22-9c-0.2-0.1-0.4-0.1-0.7-0.2L119.9,395l0,0L331.6,271.7z"/>
	<path class="st14" d="M119.2,394.5"/>
	<path class="st5" d="M121,396.4"/>
	<path class="st5" d="M125.9,390.9l205.7-119.1l431.9,246.8L442.1,704.1c6.1-5.9,44-38.6,44.3-41.7c0.4-3.9-25.7-5.1-33.5-7.4
		s2.1-17.1,1.6-20.4c-0.5-3.3-8.7-16.7-5.9-19.5c2.8-2.8-13.7-5.6-14.7-7.4c-1.1-1.8-20-11.6-20-13.7s-42.9-4.7-42.9-4.7
		c0,0-0.6-9.7,2.9-13.4c3.5-3.8-41.3-15.8-41-18.3s-48.7-20.7-51.5-21.6c-2.8-0.9-14-13-14-13l-10.1-43.1c0,0,0,0,0,0l-73.4-37.7
		l3.2-29.2c0,0,0,0,0,0l-23.5-9.6c-0.2-0.1-0.4-0.1-0.7-0.2L125.9,390.9l4.5-1.9"/>
	<polygon class="st27" points="419.6,151.6 418.6,158.7 415.3,156.9 414.3,161.5 409.4,153.9 409.4,314.8 409.4,316.7 488.5,271 	
		"/>
	<polygon class="st28" points="406.3,156.1 406.1,154.6 396.9,156.2 396.6,156.7 331.6,271.7 409.4,316.7 409.4,314.8 409.4,154.4 	
		"/>
	<path class="st5" d="M408.5,136.2l-11.2,19.1c-0.5,0.8,0.4,1.7,1.2,1.4l5.7-2c0.6-0.2,1.3,0.2,1.4,0.8l0,0c0.1,0.5,0.6,0.9,1.2,0.8
		l2.6-0.4v-0.1l4.1,6c0.5,0.7,1.7,0.5,1.8-0.3l0.3-1.3c0.1-0.6,0.9-1,1.5-0.7l1.1,0.6c0.6,0.3,1.4,0,1.5-0.7l0.9-5.7
		c0-0.2,0-0.4-0.1-0.6l-10.2-16.9C409.9,135.5,408.9,135.5,408.5,136.2z"/>
	<g>
		<g>
			<polyline class="st28" points="466.2,193.3 352.7,394.1 488.4,472.7 488.4,469.3 488.4,153.4 466.2,193.3 			"/>
			<polyline class="st27" points="488.4,472.7 626.7,392.9 488.4,153.4 488.4,153.4 488.4,153.4 			"/>
		</g>
		<path class="st5" d="M487.9,154.9l-14.1,24.2c-0.6,1,0.4,2.1,1.6,1.7l7.2-2.5c0.8-0.3,1.6,0.2,1.7,1l0,0c0.1,0.7,0.8,1.1,1.5,1
			l3.2-0.6v-0.1l5.2,7.6c0.6,0.9,2.1,0.6,2.3-0.4l0.4-1.6c0.2-0.8,1.1-1.2,1.9-0.8l1.4,0.7c0.8,0.4,1.7-0.1,1.9-0.9l1.1-7.2
			c0-0.3,0-0.6-0.2-0.8l-12.9-21.3C489.7,154,488.4,154.1,487.9,154.9z"/>
	</g>
	<g>
		<polygon class="st29" points="204.2,507 186,499.5 182.9,499.8 179.1,502.9 179.6,515.2 188.9,520.6 206.4,512 206.6,509.8 
			205.6,508.7 		"/>
		<polygon class="st29" points="204,504.1 186.6,499.3 185,499 178.9,500 179.4,512.2 188.7,517.6 206.2,509.1 206.4,506.8 
			205.5,505.7 		"/>
		<polygon class="st5" points="191,498.6 182.8,496.8 178.9,500 179.4,509.7 188.7,515.1 206.1,506.8 202.8,503 195.2,496.8 		"/>
	</g>
	<g>
		<polygon class="st29" points="304.3,593.5 282.6,587.9 279,588.1 274.8,590.1 276.4,598.3 287.6,602.2 307.2,596.9 307.3,595.4 
			306.1,594.7 		"/>
		<polygon class="st29" points="303.8,591.5 283.2,587.8 281.3,587.6 274.3,588.1 276,596.3 287.2,600.2 306.8,594.9 306.9,593.4 
			305.7,592.7 		"/>
		<polygon class="st5" points="288.2,587.5 278.6,586.1 274.3,588.1 275.7,594.7 287,598.5 306.4,593.4 302.3,590.8 293,586.4 		"/>
	</g>
	<polygon class="st5" points="125.9,390.9 329.5,272.5 335,20.2 126.4,140.7 	"/>
	<polygon class="st14" points="119.9,395 111.2,399.5 110.6,150.2 119.6,145 	"/>
	<polygon class="st14" points="126,390.9 120.4,394.9 119.6,145 126.7,140.9 	"/>
	<path class="st30" d="M109.8,150.9"/>
	<line class="st31" x1="13.5" y1="459.2" x2="111.2" y2="399.5"/>
	<g>
		<path class="st32" d="M357.4,444.6"/>
		<path class="st32" d="M512.7,379.8c-31.1-28.9-73.3-17.6-92.9-7c-16.3,8.8-35.1,37.9-37.3,48.9c-5.9,0.1-10.7,1.4-14.5,3.5
			c-20.8,11.1-14.1,45-14.1,45l9.7,4.2c-1.5-8.4-1.1-15.2-0.5-19.7c1.2-9.5,3.7-11.4,4.7-12.1c4.1-2.7,9.8-0.3,10.4-0.1
			c13.7,5.7,12.1,38.2,11.9,41l17,6.8l29.5-15.1c0,0,0.1-0.6,0.1-1.7c0.7,1,1.4,2,1.9,3c56.7,4.3,93.2-4.9,108.8-12.7
			C553.2,448.4,543.7,408.7,512.7,379.8z"/>
		<path class="st32" d="M382.5,421.7c0,0,56.5-2.8,54.1,53.5"/>
		<path class="st32" d="M422.3,377.1c0,0,40,13.1,81.1-1.6"/>
		<path class="st32" d="M448.4,381c0,0,2.5-12.8,6.3-16"/>
		<path class="st32" d="M401.4,396c0,0,64.8,20.5,119.6-2.7"/>
		<path class="st32" d="M475.1,362.2c0,0,10,11.3,10,18.9"/>
		<path class="st32" d="M470.4,382.5c0,0,2.3,9.7,1.1,16.3"/>
		<path class="st32" d="M501.1,376.6c0,0,7.6,8.8,7.4,14.1"/>
		<path class="st32" d="M411.1,398.5c0,0-6.4,13.3-6.4,23.1"/>
		<path class="st32" d="M384.5,415.8c1.4,0.4,70.1,34.8,149.1,3.4"/>
		<path class="st32" d="M469.1,433.2c0,0,7.9,26.4,2.7,44.4"/>
		<path class="st32" d="M516.5,427.1c0,0,7.9,26.4,2.7,44.4"/>
		<path class="st32" d="M389.5,422.2c0,0,35.1,16.7,31.4,61"/>
		<line class="st32" x1="370.2" y1="424.1" x2="371.1" y2="441.4"/>
		<line class="st32" x1="416.7" y1="452.7" x2="432.1" y2="448.4"/>
		<line class="st32" x1="404.7" y1="433.2" x2="418.4" y2="431.9"/>
		<polyline class="st32" points="363.6,474.3 378.6,472.1 390,470.1 		"/>
		<line class="st32" x1="378.7" y1="454" x2="380.1" y2="472.1"/>
		<polyline class="st32" points="390,470.1 405.4,472.8 420.7,468.2 		"/>
		<path class="st33" d="M353.4,451.5c0,0,8.5,5.1,9.8,3.6l23.9-1l10.8-6.1h17.2"/>
		<path class="st32" d="M445,403.7c0,0-2.3,17-2.1,24.2"/>
		<path class="st32" d="M493,401.6c0,0,4.1,16.8,2.6,23.6"/>
		<path class="st33" d="M372,423.4c0,0,33.5,4.5,35.2,67.5"/>
		<path class="st32" d="M427.2,401.3c0,0,2.5-12.8,6.3-16"/>
	</g>
	<g>
		<polyline class="st28" points="601.9,322 488.4,522.9 624.2,601.4 624.2,598 624.2,282.1 601.9,322 		"/>
		<polyline class="st27" points="624.5,600 763.5,518 622.7,286.5 		"/>
		<path class="st5" d="M622.2,282.4l-14.1,24.2c-0.6,1,0.4,2.1,1.6,1.7l7.2-2.5c0.8-0.3,1.6,0.2,1.7,1l0,0c0.1,0.7,0.8,1.1,1.5,1
			l3.2-0.6v-0.1l5.2,7.6c0.6,0.9,2.1,0.6,2.3-0.4l0.4-1.6c0.2-0.8,1.1-1.2,1.9-0.8l1.4,0.7c0.8,0.4,1.7-0.1,1.9-0.9l1.1-7.2
			c0-0.3,0-0.6-0.2-0.8l-12.9-21.3C623.9,281.5,622.7,281.6,622.2,282.4z"/>
	</g>
	<line class="st5" x1="119.9" y1="473.9" x2="166.3" y2="502"/>
	<line class="st5" x1="245.9" y1="550.8" x2="327.8" y2="597"/>
	<line class="st5" x1="180" y1="529.8" x2="261.9" y2="576"/>
	<polyline class="st34" points="130.3,137.2 137,111.8 139.1,110.5 144.9,129.7 	"/>
	<line class="st34" x1="134" y1="126.6" x2="142" y2="122"/>
	<line class="st34" x1="149.4" y1="110.5" x2="149.4" y2="126.6"/>
	<path class="st34" d="M150,113.1c0,0,5.2-6.6,6.3-6.3"/>
	<path class="st34" d="M165.7,101.5c0,0-5.6,3.2-7.6,9c-1.5,4.2,0.2,8.8,8,5.8"/>
	<path class="st34" d="M193.7,85.5c0,0-5.6,3.2-7.6,9c-1.5,4.2,0.2,8.8,8,5.8"/>
	<path class="st34" d="M171,94.6c0,0-2.2,17.1,0,17.4c2.2,0.3,4.6-1,4.6-1"/>
	<line class="st34" x1="168.1" y1="100.4" x2="175.6" y2="95.6"/>
	<line class="st34" x1="179.7" y1="93.2" x2="179.7" y2="108.9"/>
	<polygon class="st34" points="178.9,87.3 178.9,88.8 180.8,87.7 180.8,86.3 	"/>
	<polyline class="st34" points="213.5,89.9 203.8,95.6 203.8,83.7 203.8,75.4 203.8,74.1 212.7,68.9 	"/>
	<line class="st34" x1="212.7" y1="79.1" x2="203.8" y2="83.7"/>
	<line class="st34" x1="216.8" y1="71.9" x2="225.4" y2="82.1"/>
	<line class="st34" x1="216.8" y1="87.6" x2="225" y2="67"/>
	<path class="st34" d="M230.2,87l-0.2-8.9L229.8,64c0,0,6.1-3.3,6.6-2.9s9,5.5-4.8,17.2l-0.9,0.9"/>
	<line class="st34" x1="244.7" y1="48.3" x2="245.1" y2="71.5"/>
	<path class="st34" d="M254.9,49.8c0,0-5.4,3.9-3.8,10.8c1.6,6.9,5.4,6.4,7.5,1.2C260.8,56.7,260,46,254.9,49.8z"/>
	<path class="st34" d="M307.9,19.8c0,0-5.4,3.9-3.8,10.8c1.6,6.9,5.4,6.4,7.5,1.2C313.8,26.7,313,16,307.9,19.8z"/>
	<line class="st34" x1="265.6" y1="43.8" x2="265.6" y2="59.4"/>
	<path class="st34" d="M265.9,46.5c0,0,4.6-6,6-6.3"/>
	<path class="st34" d="M275.3,38.1c0,0,2.9-2,4.6-1.9c0.7,0,1.3,2.1,1.8,4.6c0.6,3.4,0.8,7.6,0.5,8.2c-0.6,1-7.3,5.8-7.7,3.2
		c-0.4-2.6-0.2-7.6,6.6-11.1"/>
	<path class="st34" d="M288.3,26.5c0,0-0.7,13.3,0,14.9c0.7,1.6,2.2,3.6,4.7,2"/>
	<line class="st34" x1="285.6" y1="32" x2="293.4" y2="27.7"/>
	<polygon class="st34" points="296.3,19 296.3,20.8 299,19.9 299,18.2 	"/>
	<line class="st34" x1="297.7" y1="25.7" x2="297.7" y2="40.5"/>
	<polyline class="st34" points="318.3,13.2 318.3,14.7 318.3,28.8 	"/>
	<path class="st34" d="M319,15.1c0,0,4-5.6,6-5.5c2.1,0.1,1.7,14.8,1.7,14.8"/>
</g>
<g id="animals_x2F_people">
	<g>
		<path class="st35" d="M353.1,310.9c0,0-1.3,6.1-1.7,6.2c-0.4,0.1,1.7,1.3,1.7,1.3s3.3-4.6,2.7-6.3S353.1,310.9,353.1,310.9z"/>
		<path class="st35" d="M340.5,310.6l11-5.4c0,0,1.6-0.9,2.9-0.8c0.7,0.1,1.5,0.3,2.2,0.6c0.7,0.4,1.4,0.5,2.1,0.1
			c0.4-0.2,0.8-0.7,0.8-1.2c0-0.5-0.3-0.9-0.6-1.3c-0.3-0.4-0.7-0.7-1-1.1c-0.5-0.7-0.5-1.7-0.2-2.5c0.3-0.8,0.8-1.5,1.4-2.1
			c0.8-0.9,1.8-1.7,2.9-2c1.2-0.3,4.9-2.5,3.9-1.7c-1.2,0.9-1.6,1.2-1.9,1.3c-0.4,0.2-0.7,0.6-0.9,1c-0.6,1.4,1.1,1.7,0.3,4
			c-0.6,1.5,1.5,3.7,0.1,4.8c-0.7,0.5-0.7,0.5-0.7,0.7c0,0.1,0.5,0.2,0.4,0.3c-0.6,0.4-1.2,0.7-1.8,1c-0.7,0.4-2.6,0.5-2.1,1.2
			c1.2,1.5-0.7,5.5-0.7,5.5c2.2,2.4-0.3,8-1.2,8.1c-0.9,0.2-2.1-1.5-2.1-1.5c3-1.7,0.4-6.4-0.3-6.2c-0.6,0.2-2.1-2.4-2.1-2.4
			c0.2,1-3.4,5.5-3.4,5.5c0.4,0.8-2.3,8.3-2.9,8.3c-0.6,0-1.2-0.8-2-1.3c0,0,2.1-2.6,1.7-5c0,0-2.7-0.7-3.5-1.7c0,0,0.5,4.9-0.3,5.4
			c-0.8,0.6-2.2-0.5-2.7-1.3c0,0,1.4-2.4,1.2-3.1C341.1,317.1,339.1,312.1,340.5,310.6"/>
		<path class="st36" d="M346.9,318.4"/>
		<path class="st35" d="M338,297.3c0,0-0.8,2.9,0,3.9c0.7,1,0,1.6,0.5,1.6c1,0.1-0.3,2-0.3,3c0,1.1,0.5,2,1.1,2.9
			c0.6,0.9,1.3,2,2.2,2.6c0.6,0.4,1.5,1.1,2.3,1c0.8-0.1,1.4-0.6,2.1-1.2c1.9-1.6,4-3.2,4.7-5.8c0.2-0.7-0.6-1.8-0.7-2.5
			c-0.2-0.9,2.4-2.1,1.4-5.4c0,0-3.6-0.8-4.6,2c0,0-3.1-0.8-4.6,0.1C341.5,298.6,340.1,297,338,297.3z"/>
		<path class="st37" d="M344.2,310.1c0,0,1.1-1.7,1.1-1.7c0.2-0.3-0.1-0.5-0.3-0.6c-0.7-0.3-1.5-0.3-2.2,0c-0.3,0.1-0.9,0.4-0.6,0.8
			c0,0,1.4,1.5,1.4,1.5C343.8,310.3,344.1,310.3,344.2,310.1z"/>
		<path class="st36" d="M339.2,301.8c-0.1-0.3-0.3-0.5-0.5-0.8s-0.2-0.6-0.1-0.9c0.2,0.4,0.6,0.6,1,0.6c-0.3-0.5-0.2-1.2,0.2-1.7
			c0,0.3,0.2,0.6,0.4,0.7c0.3,0.2,0.6,0.4,0.9,0.6"/>
		<path class="st36" d="M347.6,300.1c0-0.1,0.1-0.3,0.2-0.4c0.1-0.1,0.2-0.1,0.4-0.2c0.3-0.1,0.7-0.1,1-0.1c-0.2,0.3-0.4,0.6-0.4,1
			c0-0.2,0.2-0.4,0.4-0.4c0.2-0.1,0.4,0,0.6,0c0.2,0,0.4,0.1,0.6,0.1c-0.3,0.2-0.6,0.2-0.9,0.4c-0.3,0.2-0.4,0.6-0.4,0.9"/>
		
			<ellipse transform="matrix(0.8905 -0.4549 0.4549 0.8905 -100.7584 190.7769)" class="st37" cx="346" cy="304.7" rx="0.8" ry="0.6"/>
		
			<ellipse transform="matrix(0.4549 -0.8905 0.8905 0.4549 -85.3888 469.9874)" class="st37" cx="341.2" cy="304.7" rx="0.6" ry="0.8"/>
	</g>
	<g>
		<path class="st38" d="M467.2,556.4l-19.6-10.2c0,0-0.2-4.8,4.2-4.4l19.4,9.7C471.1,551.5,466.9,551.3,467.2,556.4z"/>
		<path class="st39" d="M467.2,556.4l5.5-2.5c0,0,0.6-2-1.6-2.3c-0.2,0-1.9-0.1-3.1,1.2C467.1,553.7,466.8,555.1,467.2,556.4z"/>
		<path class="st38" d="M453.2,556.4l19.6-10.2c0,0,0.2-4.8-4.2-4.4l-19.4,9.7C449.2,551.5,453.5,551.3,453.2,556.4z"/>
		<path class="st39" d="M453.2,556.4l-5.5-2.5c0,0-0.6-2,1.6-2.3c0.4,0,1.6,0,2.7,1C453.6,554,453.2,556.3,453.2,556.4z"/>
		<g>
			<path class="st40" d="M455.8,539c1.7-4.2,5.1-13,4.2-14.8c0,0,9.4,13.7,6.5,19.9c-1.8,3.8-9.2,8.1-11.1,1.5
				C454.7,543.4,454.9,541.1,455.8,539z"/>
			<path class="st41" d="M457.9,539.6c1-2.4,3-7.7,2.5-8.7c0,0,5.5,8.1,3.8,11.7c-1.1,2.3-5.4,4.8-6.5,0.9
				C457.3,542.2,457.4,540.8,457.9,539.6z"/>
		</g>
	</g>
	<g class="st42">
		<path class="st43" d="M571.4,774.9c0,0-5.5,46.1,0,44c5.5-2.1,29.3-20.8,28.4-21.9s0-32.2,0-32.2L571.4,774.9z"/>
		<path class="st44" d="M459.4,804.6c0,0,12.1,21.8,42.1-6.4c30-28.2,23.9-29.3,30-28.2c6.1,1.1,6.4,2.5,5.7,4.3
			c-0.7,1.8-32.5,38.9-46.7,42.5C476.2,820.3,467.6,821.4,459.4,804.6z"/>
		<path class="st43" d="M524.2,757.7c0,0-10.4-24.4,20-57.9s90.5-60.5,131.4-49.6s44.7,19.8,31.3,83.6
			c-23.1,20.9-41.8,36.6-41.3,18.7l-7.8,10.4l-2.2-4.8l-11.8,15.7l0.4-6.7l-8.7,6.7c0,0-10,3.5-9.1,6.1s3,13.9-31.8,31.8
			c-6.5,4.8-7.8-12-7-17.3S590,772,590,772l-27.4,10c0,0-23.1,65.3-72.2,66.1c-5.4,2.2-9.2,1.6-6.1-1c3.1-2.6,7.8-4.6,7.3-7.7
			c-0.5-3.1,1.7-6,3.2-4.6s-0.7,7.1-0.7,7.1S545,845.5,524.2,757.7z"/>
		<path class="st43" d="M713.9,690.3c0,0,13.8,16.1,22.4-11.8c0,0,1.4-6.1,4.6-6.8c0,0,0.7,5.7-1.1,7.5c-1.8,1.8-7.1,23.5-26.9,21
			L713.9,690.3z"/>
		
			<ellipse transform="matrix(0.6011 -0.7992 0.7992 0.6011 -365.7543 734.5128)" class="st45" cx="552.9" cy="733.6" rx="8.9" ry="5"/>
		<path class="st46" d="M571.2,698.3c6.9-9,3.2-17.3,13-20.5c5.5-1.8,9-7.4,14-10.3c8.7-5.1,17.5-10.2,27.2-12.4
			c1.3-0.3,2.6-0.5,3.9-0.2c2.1,0.5,3.8,2.3,4.8,4.2c4.6,8.4,1,18.9,2,28.4c1.9-2.5,4.2-4.8,6.8-6.6c2,8.1-8,15.9-5.5,23.9
			c0.7,2.1,2.1,3.8,2.8,5.9c1.8,5-1.2,10.4-4,14.9c-2.1,3.4-4.2,6.8-6.4,10.2c-1.2,2-3.6,4.2-5.4,2.8c-1.4-1-1.1-3.4-2.4-4.5
			c-1.6-1.4-4.2,0.2-5.1,2.2c-1,2-1.3,4.4-2.9,5.8c-1.7-2.4-3-5.1-3.9-7.9c-4.4-1.9-10-0.3-12.9,3.6c-0.5,0.7-0.9,1.4-1.6,1.8
			c-0.6,0.4-1.3,0.5-2,0.6c-2.7,0.2-5.4-0.7-8.2-0.5c-2.7,0.3-5.7,2.6-5,5.3"/>
		<path class="st45" d="M563.3,771.7l5.3,3.6l13.2-12.5c0,0,3.5,5.8,5.7,6.1c2.2,0.3,9.6,13.1,2.9,23.6c0,0-7.8-1.3-8.9-5.3
			c-1.1-4-5.6,6.5-5.6,6.5l-3.7,16.4l-4-7.4l-2.5,4.8l-1.9-5.8l-2.8,4.8l-0.6-8l-4.8,3l-0.9-7.5C554.5,794.1,564,773.2,563.3,771.7z
			"/>
		<path class="st44" d="M503.2,794.7c0,0,12.1,21.8,42.1-6.4c30-28.2,23.9-29.3,30-28.2c6.1,1.1,6.4,2.5,5.7,4.3
			c-0.7,1.8-32.5,38.9-46.7,42.5C520,810.4,511.4,811.5,503.2,794.7z"/>
		<polygon class="st45" points="737.1,671.7 737.1,680.1 745.1,680.1 746.3,674.7 746.3,665.9 741.7,670.5 741.1,665.9 		"/>
		
			<ellipse transform="matrix(0.6011 -0.7992 0.7992 0.6011 -367.9818 734.103)" class="st5" cx="551.4" cy="735.7" rx="4.7" ry="2.7"/>
	</g>
	<path class="st47" d="M123.1,20.8c0,0-0.1-2.5-0.8-2.8c-0.8-0.4-3.4-1-4.1-0.8c-0.7,0.2-4.4,2.3-4.3,3c0.1,0.6,0.2,2.3,0.2,3
		s1.5,1.8,2,2.1c0.4,0.3,1.3,0.6,2.2,0.6C119.2,25.9,123.1,20.8,123.1,20.8z"/>
	<path class="st47" d="M136.4,21.2c0,0-0.1-2.5,0.6-2.9c0.7-0.4,3.3-1.2,4-1.1s4.5,2,4.5,2.6c0,0.6,0,2.3,0,3
		c0.1,0.8-1.4,1.9-1.8,2.3c-0.4,0.3-1.2,0.7-2.1,0.8C140.7,26.1,136.4,21.2,136.4,21.2z"/>
	<path class="st47" d="M135,43.9c0.6,3.8,2.7,11.8,6.4,14.2s3.2,6-0.7,6c-3.9,0-12.4,0-12.4,0l-1.2-16.5L135,43.9z"/>
	<path class="st47" d="M101.8,61.4c0,0-3.5,7.4-1.3,8.9c2.2,1.5,12,1.6,13.1,0.3c1.1-1.3-1.3-4.1-2.2-4.5c-0.9-0.4-0.2-4-0.2-4.7
		C111.1,60.6,101.8,61.4,101.8,61.4z"/>
	<path class="st47" d="M90.3,45.2c7.5-12.4,22-11.3,27.7-11.2c0,0,19.6,2.2,19.8,5.4s-6.9,10.7-7.5,10.9c-0.7,0.2-1.2,17.2,1,15.9
		s8.1,3.7,6.2,7c-1.9,3.3-15.7,1.4-17.9-1c-2.2-2.4-3-9.4-4.1-12.1c-1.4,5.1-18.2,2.7-18.2,2.7s-7.7,5.7-2.6,7.5
		c5.1,1.8,2.6,6.8-7.1,6.4C77.8,76.5,80.9,65.9,87,54l2.2-4.9c0,0-5.6,1.5-6.6-0.4C81.8,47.2,85.7,41.9,90.3,45.2z"/>
	<ellipse class="st47" cx="129.8" cy="29.8" rx="15.1" ry="11.7"/>
	<circle class="st48" cx="124.3" cy="27.2" r="1.3"/>
	<circle class="st48" cx="135.1" cy="27.2" r="1.3"/>
	<path class="st48" d="M130.3,34.1l2-2.2c0.3-0.3-0.1-0.6-0.5-0.6c-0.2-0.1-0.9-0.4-2-0.4c-1,0-1.8,0.3-2,0.4
		c-0.2,0-0.4,0.1-0.6,0.2c-0.1,0.1-0.1,0.3,0,0.4l2,2.2C129.4,34.4,130,34.4,130.3,34.1z"/>
	<path class="st47" d="M129.6,34.2c-0.1,0.6-0.2,1.3-0.4,1.9s-0.7,1.1-1.3,1.4"/>
	<path class="st47" d="M129.7,34.2c0.1,0.6,0.2,1.3,0.4,1.9s0.7,1.1,1.3,1.4"/>
	<g>
		<path class="st38" d="M521.6,541.9l-42.2-24.4c0,0-3.7-16,13.2-16l44.5,25c-0.5,0-8.2-0.7-12.8,5.3
			C521,536.1,521.4,540.8,521.6,541.9z"/>
		
			<ellipse transform="matrix(0.7681 -0.6403 0.6403 0.7681 -219.3617 462.6785)" class="st39" cx="529.1" cy="534.2" rx="10.8" ry="5.4"/>
		<ellipse class="st49" cx="492.7" cy="531.2" rx="7.4" ry="3"/>
		<ellipse class="st49" cx="499.3" cy="533.2" rx="7.4" ry="3"/>
		<path class="st50" d="M517.7,479.8c-0.3-0.6-0.8-1-1.5-1h-9.7c-0.6,0-1.2,0.4-1.5,0.9c-1.3,2.6-4.7,10.2-4.9,16.8
			c-0.1,3.5,0,5.9,0.1,7.5c0.1,0.7-0.3,1.4-1,1.7c-2,0.8-4.7,1.7-6.5,1.9c-2.6,0.2-0.7,15.7-0.1,19.5c0.1,0.5,0.4,1,0.9,1.2
			l11.7,5.7c1.1,0.5,2.3-0.3,2.3-1.5v-12.1c0-0.8,0.6-1.5,1.4-1.6c0,0,0,0,0,0c4.4-0.5,6.8-2.5,8.3-4.5c0,0,0.7-0.5,1-1.9
			c0.9-2.1,0.9-3.9,0.9-3.9l0,0C520.6,501.5,522,489.6,517.7,479.8z"/>
		<path class="st50" d="M525.9,471.1c0,8-5.5,14.4-12.3,14.4c-1.7,0-3.3-0.4-4.8-1.1c-4.4-2.2-7.5-7.3-7.5-13.3
			c0-8,5.5-14.4,12.3-14.4C520.4,456.7,525.9,463.2,525.9,471.1z"/>
		<ellipse class="st5" cx="511.4" cy="472.1" rx="9.2" ry="12"/>
		<ellipse class="st19" cx="510" cy="472.5" rx="6.2" ry="7.8"/>
		<path class="st50" d="M504.8,481.2c0,0-10.7,3.4-14.1,18.7c-0.4,1.8,6.5,8.1,6.5,8.1l4.2-3.9c0,0-4.2-4.8-3.8-6.3
			c0.4-1.4,4.7-6.3,4.7-6.3l5.9-4L504.8,481.2z"/>
		<path class="st50" d="M513.4,510.3c0,0,21.4-5.6,12-21.9c-2.4-4.2-5-5.4-5-5.4l-6.1,4.2c0,0,8.5,7,7.8,8.4
			c-2.2,4.7-7.4,5.9-7.4,5.9l-4.7,2.8L513.4,510.3z"/>
		
			<ellipse transform="matrix(0.6642 -0.7476 0.7476 0.6642 -210.4742 542.618)" class="st19" cx="498.7" cy="505.6" rx="3.5" ry="2.9"/>
		
			<ellipse transform="matrix(0.6642 -0.7476 0.7476 0.6642 -204.4143 556.1085)" class="st19" cx="516.8" cy="505.6" rx="3.5" ry="2.9"/>
	</g>
	<g>
		<path d="M411.2,633.4c0,0,3.9,3.5,9.9-1.9c0,0-2.9,0-2.1-1.5c0.8-1.4,2.6-8.5,1-9.7s-7.9-4.9-7.9-4.9L411.2,633.4z"/>
		<path class="st51" d="M406.7,613.2l1.6,4.8c0,0-3.5,4.8-6.2,5.2s-2.2,1.4-3,1.7c-0.8,0.4-0.3-2.3,0-3.3
			C399.4,620.6,404.2,613.8,406.7,613.2z"/>
		<polygon class="st52" points="407.6,630.4 408.9,631.3 407.3,634.2 404.5,636.4 405,634.9 402.8,635.6 403.7,634.1 401.5,634.9 
			406.7,632.3 		"/>
		<path class="st52" d="M412.2,633.4l-1.1,3.4l-3.9,1l2.5,0.2l-0.6,1.3l1.9-0.5v1.6l1.5-1.6c0,0,0.9-0.5,1.2-0.7
			c0.3-0.2-0.6-2.2-0.6-2.2l0.4-2.6H412.2z"/>
		<path class="st53" d="M408,610.4c0,0-5.9,7.6-2.9,15.5s7.6,9,7.6,9s6.2-5.5,3.1-12.8c0,0-1.1-1.3-1.4-4c-0.3-2.6,0.6-7.5,0.6-7.5
			L408,610.4z"/>
		<path class="st51" d="M406.8,610.6c-1-4.9,3.5-6.7,5.3-6.6c1.3,0,2.4,1.1,3.3,2.1c0.5,0.6,1,1.2,1.3,2c0.3,0.7,0.3,1.5,0.5,2.2
			c0.2,1,0.4,1.9,0.8,2.8c0.2,0.4,0.4,0.8,0.7,1.2c0.4,0.4,0.8,0.6,1.3,0.9c1.2,0.7,2.2,1.8,3,2.9c1.7,2.3,3,5.2,2.2,8
			c-0.5-0.9-0.5-2.1-1.2-2.8c-0.3-0.3-0.7-0.4-1-0.6c-1.6-0.6-3.2-1.1-4.7-1.8c-1.5-0.7-2.9-1.8-3.7-3.3c-0.5-1.1-0.7-2.3-0.7-3.5
			c0-0.6,0.1-1.3-0.1-1.9c-0.1-0.6-0.6-1.2-1.2-1.4c-0.4-0.1-0.8,0-1.2,0.1C410.3,611.1,407.3,613,406.8,610.6z"/>
		<path class="st52" d="M409,609.3c0,0,0.6-1.7-0.6-2.1c-1.5-0.6-5.7,1.5-6.3,4.3C402.1,611.5,405.8,608.5,409,609.3z"/>
	</g>
	<g>
		<path d="M415.4,664.3c0,0,2.2,2,5.6-1.1c0,0-1.6,0-1.2-0.8s1.5-4.8,0.6-5.5c-0.9-0.7-4.4-2.8-4.4-2.8L415.4,664.3z"/>
		<path class="st51" d="M412.9,652.9l0.9,2.7c0,0-2,2.7-3.5,2.9c-1.5,0.2-1.2,0.8-1.7,1s-0.2-1.3,0-1.9
			C408.8,657.1,411.5,653.3,412.9,652.9z"/>
		<polygon class="st52" points="413.4,662.6 414.1,663.2 413.2,664.8 411.7,666 412,665.2 410.7,665.6 411.2,664.8 410,665.2 
			412.9,663.7 		"/>
		<path class="st52" d="M416,664.3l-0.6,1.9l-2.2,0.6l1.4,0.1l-0.3,0.7l1.1-0.3v0.9l0.8-0.9c0,0,0.5-0.3,0.7-0.4s-0.3-1.2-0.3-1.2
			l0.2-1.5H416z"/>
		<path class="st53" d="M413.7,651.4c0,0-3.4,4.3-1.6,8.7c1.7,4.5,4.3,5.1,4.3,5.1s3.5-3.1,1.7-7.2c0,0-0.6-0.8-0.8-2.3
			s0.3-4.2,0.3-4.2L413.7,651.4z"/>
		<path class="st51" d="M413,651.5c-0.6-2.8,2-3.8,3-3.7c0.8,0,1.4,0.6,1.9,1.2c0.3,0.3,0.6,0.7,0.7,1.1c0.2,0.4,0.2,0.8,0.3,1.3
			c0.1,0.5,0.2,1.1,0.4,1.6c0.1,0.2,0.2,0.5,0.4,0.7c0.2,0.2,0.5,0.3,0.7,0.5c0.7,0.4,1.2,1,1.7,1.6c1,1.3,1.7,2.9,1.2,4.5
			c-0.3-0.5-0.3-1.2-0.7-1.6c-0.2-0.2-0.4-0.2-0.6-0.3c-0.9-0.4-1.8-0.6-2.6-1c-0.8-0.4-1.6-1-2.1-1.9c-0.3-0.6-0.4-1.3-0.4-2
			c0-0.4,0-0.7,0-1.1c-0.1-0.3-0.3-0.7-0.7-0.8c-0.2-0.1-0.5,0-0.7,0C414.9,651.8,413.3,652.8,413,651.5z"/>
		<path class="st52" d="M414.2,650.8c0,0,0.3-0.9-0.3-1.2c-0.9-0.3-3.2,0.8-3.5,2.4C410.3,652,412.4,650.3,414.2,650.8z"/>
	</g>
	<g>
		<path d="M290.5,592.4c0,0,2.2,2,5.6-1.1c0,0-1.6,0-1.2-0.8s1.5-4.8,0.6-5.5c-0.9-0.7-4.4-2.8-4.4-2.8L290.5,592.4z"/>
		<path class="st51" d="M288,581l0.9,2.7c0,0-2,2.7-3.5,2.9c-1.5,0.2-1.2,0.8-1.7,1s-0.2-1.3,0-1.9C283.9,585.1,286.6,581.3,288,581
			z"/>
		<polygon class="st52" points="288.5,590.7 289.2,591.2 288.3,592.8 286.8,594.1 287.1,593.2 285.8,593.6 286.3,592.8 285.1,593.2 
			288,591.8 		"/>
		<path class="st52" d="M291.1,592.4l-0.6,1.9l-2.2,0.6l1.4,0.1l-0.3,0.7l1.1-0.3v0.9l0.8-0.9c0,0,0.5-0.3,0.7-0.4s-0.3-1.2-0.3-1.2
			l0.2-1.5H291.1z"/>
		<path class="st53" d="M288.7,579.4c0,0-3.4,4.3-1.6,8.7c1.7,4.5,4.3,5.1,4.3,5.1s3.5-3.1,1.7-7.2c0,0-0.6-0.8-0.8-2.3
			s0.3-4.2,0.3-4.2L288.7,579.4z"/>
		<path class="st51" d="M288.1,579.5c-0.6-2.8,2-3.8,3-3.7c0.8,0,1.4,0.6,1.9,1.2c0.3,0.3,0.6,0.7,0.7,1.1c0.2,0.4,0.2,0.8,0.3,1.3
			c0.1,0.5,0.2,1.1,0.4,1.6c0.1,0.2,0.2,0.5,0.4,0.7c0.2,0.2,0.5,0.3,0.7,0.5c0.7,0.4,1.2,1,1.7,1.6c1,1.3,1.7,2.9,1.2,4.5
			c-0.3-0.5-0.3-1.2-0.7-1.6c-0.2-0.2-0.4-0.2-0.6-0.3c-0.9-0.4-1.8-0.6-2.6-1c-0.8-0.4-1.6-1-2.1-1.9c-0.3-0.6-0.4-1.3-0.4-2
			c0-0.4,0-0.7,0-1.1s-0.3-0.7-0.7-0.8c-0.2-0.1-0.5,0-0.7,0C290,579.8,288.3,580.9,288.1,579.5z"/>
		<path class="st52" d="M289.3,578.8c0,0,0.3-0.9-0.3-1.2c-0.9-0.3-3.2,0.8-3.5,2.4C285.4,580,287.5,578.3,289.3,578.8z"/>
	</g>
	<g>
		<path class="st54" d="M72.6,464.5c0,0,3.1,23.9,50,24.5s55.3-21.4,55.3-21.4L72.6,464.5z"/>
		<path class="st55" d="M74,466.2c0.5,0.5,63.9,25,103.9,1.3c-10.7,2.5-97.6-4.6-100.2-4.9c-1.9-0.2-5.3-0.4-5.2,1.2
			C72.6,464.5,73,465.2,74,466.2z"/>
		<path class="st56" d="M104.6,447.1l16.2-1.8c0,0,9.2-3.6,6.5-11.7l4.8-2.2c0,0,2.7,13.9-2.8,16.4c-5.5,2.5-10.5,4.3-10.5,4.3
			l5.3,14.7c0,0-19.3,2.5-22.4-0.7l-0.1-9.2c0,0-4.8,4.7-1.6,4.8c3.3,0.2,10.1,0.3,10.1,0.3l-3.9,9.2c0,0-17.8-4.4-17.2-8.1
			C89.6,459.4,93.8,447.4,104.6,447.1z"/>
		
			<ellipse transform="matrix(0.9126 -0.4088 0.4088 0.9126 -169.4044 82.9522)" class="st56" cx="109.4" cy="437.8" rx="9" ry="12"/>
		
			<ellipse transform="matrix(0.9126 -0.4088 0.4088 0.9126 -169.5768 83.6284)" class="st5" cx="110.8" cy="438.5" rx="7.7" ry="10.7"/>
		
			<ellipse transform="matrix(0.9126 -0.4088 0.4088 0.9126 -169.1335 83.3225)" class="st19" cx="110.4" cy="437.3" rx="3.4" ry="5.9"/>
		<path class="st57" d="M101.2,487.8l32.3-73.1c0,0-0.7-8.8,5-18.6l6.8,3.7l-6.4,12.5l-4.2,2.7L101.2,487.8z"/>
		<polygon class="st55" points="103.3,491.9 97.8,507.3 90.3,504.4 97.7,490.7 101.5,487.3 		"/>
		<polygon class="st58" points="126,477.6 127.6,477.7 143.1,467.3 141.7,467.3 		"/>
		
			<ellipse transform="matrix(0.9999 -1.534473e-02 1.534473e-02 0.9999 -6.5939 2.0124)" class="st19" cx="127.8" cy="430.7" rx="3.1" ry="3.9"/>
		
			<ellipse transform="matrix(0.9999 -1.534473e-02 1.534473e-02 0.9999 -7.2013 1.7274)" class="st19" cx="109" cy="470.1" rx="3.1" ry="3.9"/>
	</g>
</g>
<g id="trees">
	<g>
		<path class="st59" d="M254.1,345.7"/>
		<g>
			<polygon class="st59" points="254.1,345.7 256.4,347.1 258.7,345.9 258.7,339.5 256.4,339.5 254.1,339.5 			"/>
		</g>
		<line class="st59" x1="256.4" y1="339.5" x2="256.4" y2="347.1"/>
	</g>
	<g>
		<polygon class="st60" points="256.2,314.1 243.4,335.7 256.2,343.3 256.4,343.2 256.4,314.4 		"/>
		<polygon class="st60" points="256.4,314.4 256.4,343.2 269.3,335.6 		"/>
	</g>
	<polygon class="st61" points="256.4,307.8 256.2,307.6 245,326.6 256.2,333.2 256.4,333.1 267.8,326.5 	"/>
	<path class="st47" d="M255.8,307.5l-5.8,10c-0.2,0.4,0.2,0.9,0.6,0.7l3-1c0.3-0.1,0.7,0.1,0.7,0.4l0,0c0,0.3,0.3,0.5,0.6,0.4
		l1.3-0.2v0l2.2,3.1c0.3,0.4,0.9,0.3,1-0.2l0.1-0.7c0.1-0.3,0.5-0.5,0.8-0.3l0.6,0.3c0.3,0.2,0.7,0,0.8-0.4l0.5-3
		c0-0.1,0-0.2-0.1-0.3l-5.3-8.8C256.5,307.1,256,307.1,255.8,307.5z"/>
	<g>
		<polygon class="st21" points="585.1,588.5 585.1,614.6 593.1,610.4 593.1,588.5 		"/>
		<polygon class="st59" points="577.2,588.5 577.2,610 585.1,614.6 585.1,588.5 		"/>
	</g>
	<polygon class="st60" points="584.2,501.6 540,575.9 584.2,601.8 584.7,601.5 584.7,502.4 	"/>
	<polygon class="st62" points="584.7,502.4 584.7,601.5 629.3,575.4 	"/>
	<polygon class="st60" points="584.2,479.2 545.4,544.5 584.2,567.3 584.7,567 584.7,479.9 	"/>
	<polygon class="st62" points="584.7,479.9 584.7,567 623.9,544 	"/>
	<path class="st5" d="M582.6,478.2l-19.4,33.3c-0.8,1.4,0.6,2.9,2.2,2.4l9.9-3.5c1-0.4,2.2,0.3,2.4,1.3l0,0c0.2,0.9,1.1,1.6,2.1,1.4
		l4.5-0.8l0.3,0.3l6.9,10c0.9,1.3,2.9,0.9,3.2-0.6l0.5-2.2c0.2-1.1,1.5-1.7,2.6-1.1l1.9,1c1.1,0.5,2.4-0.1,2.6-1.2l2.1-7.3
		c0.1-0.4-0.5-3.4-0.7-3.7l-17.7-29.4C585,477,583.2,477,582.6,478.2z"/>
	<g>
		<polygon class="st21" points="330.5,283.1 330.5,294 333.8,292.2 333.8,283.1 		"/>
		<polygon class="st59" points="327.2,283.1 327.2,292.1 330.5,294 330.5,283.1 		"/>
	</g>
	<polygon class="st60" points="330.1,247.1 311.8,277.9 330.1,288.7 330.3,288.6 330.3,247.4 	"/>
	<polygon class="st62" points="330.3,247.4 330.3,288.6 348.8,277.7 	"/>
	<polygon class="st60" points="330.1,237.8 314,264.9 330.1,274.3 330.3,274.2 330.3,238.1 	"/>
	<polygon class="st62" points="330.3,238.1 330.3,274.2 346.6,264.7 	"/>
	<path class="st47" d="M329.4,237.4l-8.1,13.8c-0.3,0.6,0.3,1.2,0.9,1l4.1-1.4c0.4-0.2,0.9,0.1,1,0.5l0,0c0.1,0.4,0.4,0.7,0.9,0.6
		l1.9-0.3l0.1,0.1l2.9,4.2c0.4,0.5,1.2,0.4,1.3-0.2l0.2-0.9c0.1-0.5,0.6-0.7,1.1-0.5l0.8,0.4c0.4,0.2,1,0,1.1-0.5l0.9-3
		c0-0.2-0.2-1.4-0.3-1.5l-7.4-12.2C330.4,236.9,329.7,236.9,329.4,237.4z"/>
	<g>
		<path class="st59" d="M261.9,391.9"/>
		<polygon class="st21" points="268.5,384.2 268.5,395.1 271.8,393.3 271.8,384.2 		"/>
		<polygon class="st59" points="265.2,384.2 265.2,393.1 268.5,395.1 268.5,384.2 		"/>
	</g>
	<polygon class="st60" points="268.1,348.2 249.8,379 268.1,389.8 268.3,389.6 268.3,348.5 	"/>
	<polygon class="st62" points="268.3,348.5 268.3,389.6 286.8,378.8 	"/>
	<polygon class="st60" points="268.1,338.9 252,366 268.1,375.4 268.3,375.3 268.3,339.2 	"/>
	<polygon class="st62" points="268.3,339.2 268.3,375.3 284.6,365.8 	"/>
	<path class="st47" d="M267.4,338.5l-8.1,13.8c-0.3,0.6,0.3,1.2,0.9,1l4.1-1.4c0.4-0.2,0.9,0.1,1,0.5l0,0c0.1,0.4,0.4,0.7,0.9,0.6
		l1.9-0.3l0.1,0.1l2.9,4.2c0.4,0.5,1.2,0.4,1.3-0.2l0.2-0.9c0.1-0.5,0.6-0.7,1.1-0.5l0.8,0.4c0.4,0.2,1,0,1.1-0.5l0.9-3
		c0-0.2-0.2-1.4-0.3-1.5l-7.4-12.2C268.4,338,267.7,338,267.4,338.5z"/>
	<g>
		<path class="st59" d="M294.6,361.6"/>
		<polygon class="st21" points="306.4,348 306.4,367.2 312.2,364.1 312.2,348 		"/>
		<polygon class="st59" points="300.5,348 300.5,363.8 306.4,367.2 306.4,348 		"/>
	</g>
	<polygon class="st60" points="305.6,284.1 273.2,338.7 305.6,357.8 306,357.6 306,284.7 	"/>
	<polygon class="st62" points="306,284.7 306,357.6 338.8,338.3 	"/>
	<polygon class="st60" points="305.7,267.6 277.2,315.6 305.7,332.4 306,332.2 306,268.1 	"/>
	<polygon class="st62" points="306,268.1 306,332.2 334.9,315.3 	"/>
	<path class="st47" d="M304.5,266.9l-14.3,24.5c-0.6,1,0.5,2.2,1.6,1.8l7.3-2.6c0.8-0.3,1.6,0.2,1.7,1l0,0c0.1,0.7,0.8,1.2,1.5,1
		l3.3-0.6l0.2,0.2l5.1,7.4c0.6,0.9,2.1,0.7,2.4-0.4l0.4-1.6c0.2-0.8,1.1-1.2,1.9-0.8l1.4,0.7c0.8,0.4,1.8-0.1,1.9-0.9l1.5-5.4
		c0-0.3-0.4-2.5-0.5-2.7l-13-21.6C306.2,266,305,266,304.5,266.9z"/>
	<g>
		<path class="st59" d="M379.6,324.4"/>
		<polygon class="st21" points="386.2,316.7 386.2,327.5 389.5,325.8 389.5,316.7 		"/>
		<polygon class="st59" points="382.9,316.7 382.9,325.6 386.2,327.5 386.2,316.7 		"/>
	</g>
	<polygon class="st60" points="385.8,280.7 367.5,311.5 385.8,322.2 386,322.1 386,281 	"/>
	<polygon class="st62" points="386,281 386,322.1 404.5,311.3 	"/>
	<polygon class="st60" points="385.8,271.4 369.7,298.5 385.8,307.9 386,307.8 386,271.6 	"/>
	<polygon class="st62" points="386,271.6 386,307.8 402.3,298.3 	"/>
	<path class="st47" d="M385.2,270.9l-8.1,13.8c-0.3,0.6,0.3,1.2,0.9,1l4.1-1.4c0.4-0.2,0.9,0.1,1,0.5l0,0c0.1,0.4,0.4,0.7,0.9,0.6
		l1.9-0.3l0.1,0.1l2.9,4.2c0.4,0.5,1.2,0.4,1.3-0.2l0.2-0.9c0.1-0.5,0.6-0.7,1.1-0.5l0.8,0.4c0.4,0.2,1,0,1.1-0.5l0.9-3
		c0-0.2-0.2-1.4-0.3-1.5l-7.4-12.2C386.1,270.5,385.4,270.5,385.2,270.9z"/>
</g>
<g id="foot_prints_snowman">
	<g class="st63">
		<path d="M467.3,225.7l3.8,1.3c0,0-0.4,1.4-1.2,2.5C469.1,230.6,465.3,230.9,467.3,225.7z"/>
		<path d="M468,224.1l3.7,1.4c0,0,4.3-5.4,1.4-8.7C470.2,215.2,467.7,220.9,468,224.1z"/>
	</g>
	<g class="st63">
		<path d="M471.8,244.7l3.8,1.3c0,0-0.4,1.4-1.2,2.5C473.5,249.7,469.7,249.9,471.8,244.7z"/>
		<path d="M472.4,243.2l3.7,1.4c0,0,4.3-5.4,1.4-8.7C474.6,234.2,472.1,239.9,472.4,243.2z"/>
	</g>
	<g class="st63">
		<path d="M456.3,276.8l3.7,1.5c0,0-0.4,1.3-1.3,2.4C457.8,281.8,454,281.8,456.3,276.8z"/>
		<path d="M457,275.2l3.6,1.6c0,0,4.5-5.1,1.8-8.6C459.7,266.4,456.9,272,457,275.2z"/>
	</g>
	<g class="st63">
		<path d="M451.5,259l3.7,1.5c0,0-0.4,1.3-1.3,2.4C453,264,449.2,264.1,451.5,259z"/>
		<path d="M452.2,257.5l3.6,1.6c0,0,4.5-5.1,1.8-8.6C454.9,248.6,452.1,254.2,452.2,257.5z"/>
	</g>
	<g class="st63">
		<path d="M432.9,320.9l3.4,2.1c0,0-0.7,1.2-1.7,2.2S429.7,325.5,432.9,320.9z"/>
		<path d="M433.9,319.5l3.3,2.2c0,0,5.4-4.3,3.3-8.2C438,311.3,434.3,316.3,433.9,319.5z"/>
	</g>
	<g class="st63">
		<path d="M433.2,296.2l3.4,2.1c0,0-0.7,1.2-1.7,2.2S430,300.8,433.2,296.2z"/>
		<path d="M434.2,294.8l3.3,2.2c0,0,5.4-4.3,3.3-8.2C438.4,286.6,434.6,291.6,434.2,294.8z"/>
	</g>
	<g class="st63">
		<path d="M408,350.5l2.1,3.4c0,0-1.1,0.8-2.5,1.2C406.2,355.4,403.1,353.2,408,350.5z"/>
		<path d="M409.5,349.7l2,3.4c0,0,6.7-1.5,6.6-5.9C416.8,344.1,411.3,347,409.5,349.7z"/>
	</g>
	<g class="st63">
		<path d="M412.5,327.1l3.4,2.1c0,0-0.7,1.2-1.7,2.2C413.1,332.3,409.4,331.8,412.5,327.1z"/>
		<path d="M413.6,325.8l3.3,2.2c0,0,5.4-4.3,3.3-8.2C417.7,317.6,414,322.6,413.6,325.8z"/>
	</g>
	<g class="st63">
		<path d="M306.5,449.7l3,2.2c0,0-0.8,1-2,1.8C306.3,454.4,302.7,453.5,306.5,449.7z"/>
		<path d="M307.7,448.6l2.9,2.2c0,0,5.9-3.3,4.5-7C313,441.7,308.6,445.8,307.7,448.6z"/>
	</g>
	<g class="st63">
		<path d="M314.1,475l2-3.1c0,0,1.1,0.8,1.8,1.9C318.8,474.9,318.1,478.6,314.1,475z"/>
		<path d="M312.9,473.8l2.1-3c0,0-3.6-5.8-7.1-4.2C305.8,468.8,310.1,473,312.9,473.8z"/>
	</g>
	<g class="st63">
		<path d="M347.8,493.3l-0.1-3.7c0,0,1.3,0,2.6,0.5C351.6,490.6,353.2,494,347.8,493.3z"/>
		<path d="M346.2,493l0.1-3.6c0,0-6.2-2.7-8.3,0.6C337.5,493,343.4,494,346.2,493z"/>
	</g>
	<g class="st63">
		<path d="M366.5,486.5l-0.1-3.7c0,0,1.3,0,2.6,0.5C370.3,483.8,371.9,487.2,366.5,486.5z"/>
		<path d="M364.9,486.3l0-3.6c0,0-6.3-2.6-8.3,0.8C356.2,486.4,362.1,487.3,364.9,486.3z"/>
	</g>
	<g class="st63">
		<path d="M332.4,477.4l1.3-3.5c0,0,1.2,0.5,2.3,1.4S337.1,480,332.4,477.4z"/>
		<path d="M330.9,476.6l1.4-3.4c0,0-4.8-4.7-7.9-2.4C322.8,473.4,328,476.5,330.9,476.6z"/>
	</g>
	<g class="st63">
		<path d="M326.7,439.4l2.8,2.9c0,0-1,1-2.2,1.7S322.5,443.1,326.7,439.4z"/>
		<path d="M328,438.3l2.6,3c0,0,6.2-2.8,5.3-7.1C334.1,431.4,329.2,435.3,328,438.3z"/>
	</g>
	<g class="st63">
		<path d="M388.3,349.4l3.2,2.4c0,0-0.7,1.2-1.9,2C388.6,354.6,384.9,353.8,388.3,349.4z"/>
		<path d="M389.4,348l3.1,2.4c0,0,5.6-3.9,3.9-7.9C394.1,340.1,390,344.9,389.4,348z"/>
	</g>
	<g class="st63">
		<path d="M382.3,375l2.6,3c0,0-1,1-2.3,1.6C381.5,380.1,378,378.5,382.3,375z"/>
		<path d="M383.7,373.9l2.5,3.1c0,0,6.3-2.6,5.5-6.9C390,367.3,385,371,383.7,373.9z"/>
	</g>
	<g class="st63">
		<path d="M356.5,387.7l2.4,3.2c0,0-1.1,0.9-2.4,1.4C355.1,392.8,351.8,390.8,356.5,387.7z"/>
		<path d="M357.9,386.8l2.2,3.3c0,0,6.5-2,6.1-6.4C364.8,380.7,359.5,384,357.9,386.8z"/>
	</g>
	<g class="st63">
		<path d="M349,412.8l2.4,3.2c0,0-1.1,0.9-2.4,1.4C347.7,417.8,344.4,415.9,349,412.8z"/>
		<path d="M350.5,411.9l2.2,3.3c0,0,6.5-2,6.1-6.4C357.3,405.7,352,409,350.5,411.9z"/>
	</g>
	<g class="st63">
		<path d="M329.1,416.9l3,2.6c0,0-0.9,1.1-2,1.9S325.2,420.9,329.1,416.9z"/>
		<path d="M330.3,415.7l2.9,2.7c0,0,6-3.4,4.6-7.6C335.7,408.2,331.2,412.6,330.3,415.7z"/>
	</g>
	<g>
		<g>
			<path class="st64" d="M157.5,215.1c-0.7-0.4-1.3-0.9-1.9-1.4L157.5,215.1z"/>
			<path class="st64" d="M198.7,153.9c-2.7-1-5.9-1-9.4-0.1h0c-2.3,0.6-4.7,1.6-7.1,3c-14.6,8.4-26.4,28.9-26.4,45.7
				c0,1.6,0.1,3.2,0.3,4.6v0c0.2,1.6,0.6,3,1,4.3c0.7,1.9,1.6,3.6,2.7,4.9c0.5,0.6,1,1.2,1.6,1.7l-0.1,0.1l-3.9-2.9l-1.9-1.4
				c0,0,0,0,0,0c-3.5-3.1-5.5-8.4-5.5-15.5c0-16.8,11.8-37.3,26.4-45.7C185.8,147.1,194.1,148,198.7,153.9z"/>
			<path class="st8" d="M204.8,158.4c-0.3-0.4-0.7-0.9-1.1-1.2c-1.4-1.5-3.1-2.6-5-3.3h0c-1.5-0.5-3-0.8-4.7-0.8
				c-1.5,0-3,0.2-4.7,0.6h0c-2.3,0.6-4.7,1.6-7.1,3c-14.6,8.4-26.4,28.9-26.4,45.7c0,1.6,0.1,3.2,0.3,4.6v0c0.2,1.5,0.6,3,1,4.3
				c0.7,1.9,1.6,3.6,2.7,4.9c0.5,0.6,1,1.2,1.6,1.7c4.8,4.3,12.3,4.6,20.8-0.3c14.6-8.4,26.4-28.9,26.4-45.7
				C208.6,166.2,207.2,161.6,204.8,158.4z M182.2,213.6c-4.8,2.8-9.3,3.6-13,2.8h0c-1.8-0.4-3.5-1.2-4.9-2.5c-0.7-0.6-1.3-1.2-1.8-2
				c-1-1.3-1.8-3-2.3-4.8c-0.6-2-0.9-4.2-0.9-6.8c0-14.6,10.2-32.3,22.9-39.6c5-2.9,9.7-3.7,13.5-2.7c0.1,0,0.2,0.1,0.3,0.1v0
				c2.4,0.7,4.4,2.1,5.9,4.2c0.2,0.2,0.3,0.5,0.5,0.7c1.7,2.7,2.7,6.4,2.7,10.9C205.1,188.6,194.9,206.3,182.2,213.6z"/>
			<path class="st65" d="M199.1,166.3c-0.4-3.3-1.4-6.1-3-8.2v0c-0.1,0-0.2-0.1-0.3-0.1c-3.8-1-8.5-0.2-13.5,2.7
				c-12.6,7.3-22.9,25-22.9,39.6c0,2.5,0.3,4.8,0.9,6.8c0.5,1.9,1.3,3.5,2.3,4.8c0.9,0.3,1.9,0.4,2.9,0.5c3.3,0.2,7-0.8,11-3.1
				c12.6-7.3,22.9-25,22.9-39.6C199.3,168.6,199.2,167.4,199.1,166.3z M175.2,201.6c-0.8,0.4-1.5,0.5-2,0.3c-0.7-0.3-1.1-1-1.1-2.1
				c0-2,1.4-4.4,3.1-5.4c1.3-0.8,2.5-0.5,2.9,0.7c0.1,0.3,0.2,0.7,0.2,1.1C178.3,198.2,176.9,200.6,175.2,201.6z M175.2,188.1
				c-0.5,0.3-1,0.4-1.5,0.4c-1,0-1.7-0.8-1.7-2.2c0-2,1.4-4.4,3.1-5.4c1.6-0.9,2.9-0.3,3.1,1.3c0,0.2,0,0.3,0,0.5
				C178.3,184.7,176.9,187.1,175.2,188.1z M189.3,193.5c-1.7,1-3.1,0.2-3.1-1.8c0-2,1.4-4.4,3.1-5.4c1.7-1,3.1-0.2,3.1,1.8
				S191,192.5,189.3,193.5z M192.2,175.7c-0.4,1.7-1.6,3.5-3,4.3c-0.1,0-0.1,0.1-0.2,0.1c-1.6,0.8-2.9,0-2.9-1.9
				c0-2,1.4-4.4,3.1-5.4c1.7-1,3.1-0.2,3.1,1.8C192.4,174.9,192.3,175.3,192.2,175.7z"/>
		</g>
		<g>
			<g>
				<path class="st64" d="M205.1,174c0,14.6-10.2,32.3-22.9,39.6c-4.8,2.8-9.3,3.6-13,2.8c0,0,0,0,0,0c-1.8-0.4-3.5-1.2-4.9-2.5
					c-0.7-0.6-1.3-1.2-1.8-2c0.9,0.3,1.9,0.4,2.9,0.5c3.3,0.2,7-0.8,11-3.1c3.3-1.9,6.5-4.5,9.8-8.2c0,0,12.7-14.5,13-31.4
					c0-1.8-0.2-3.4-0.2-3.4c-0.4-3.3-1.4-6.1-3-8.2c2.4,0.7,4.4,2.1,5.9,4.2c0.2,0.2,0.3,0.5,0.5,0.7
					C204.1,165.8,205.1,169.5,205.1,174z"/>
			</g>
		</g>
		<path class="st8" d="M155.6,213.7L155.6,213.7L155.6,213.7C155.5,213.7,155.6,213.7,155.6,213.7z"/>
		<g>
			<path class="st64" d="M256.7,158.5c-0.7-0.4-1.3-0.9-1.9-1.4L256.7,158.5z"/>
			<path class="st64" d="M298,97.2c-2.7-1-5.9-1-9.4-0.1h0c-2.3,0.6-4.7,1.6-7.1,3c-14.6,8.4-26.4,28.9-26.4,45.7
				c0,1.6,0.1,3.2,0.3,4.6v0c0.2,1.6,0.6,3,1,4.3c0.7,1.9,1.6,3.6,2.7,4.9c0.5,0.6,1,1.2,1.6,1.7l-0.1,0.1l-3.9-2.9l-1.9-1.4
				c0,0,0,0,0,0c-3.5-3.1-5.5-8.4-5.5-15.5c0-16.8,11.8-37.3,26.4-45.7C285.1,90.4,293.3,91.3,298,97.2z"/>
			<path class="st8" d="M304.1,101.7c-0.3-0.4-0.7-0.9-1.1-1.2c-1.4-1.5-3.1-2.6-5-3.3h0c-1.5-0.5-3-0.8-4.7-0.8
				c-1.5,0-3,0.2-4.7,0.6h0c-2.3,0.6-4.7,1.6-7.1,3c-14.6,8.4-26.4,28.9-26.4,45.7c0,1.6,0.1,3.2,0.3,4.6v0c0.2,1.5,0.6,3,1,4.3
				c0.7,1.9,1.6,3.6,2.7,4.9c0.5,0.6,1,1.2,1.6,1.7c4.8,4.3,12.3,4.6,20.8-0.3c14.6-8.4,26.4-28.9,26.4-45.7
				C307.9,109.5,306.5,105,304.1,101.7z M281.5,156.9c-4.8,2.8-9.3,3.6-13,2.8h0c-1.8-0.4-3.5-1.2-4.9-2.5c-0.7-0.6-1.3-1.2-1.8-2
				c-1-1.3-1.8-3-2.3-4.8c-0.6-2-0.9-4.2-0.9-6.8c0-14.6,10.2-32.3,22.9-39.6c5-2.9,9.7-3.7,13.5-2.7c0.1,0,0.2,0.1,0.3,0.1v0
				c2.4,0.7,4.4,2.1,5.9,4.2c0.2,0.2,0.3,0.5,0.5,0.7c1.7,2.7,2.7,6.4,2.7,10.9C304.4,131.9,294.2,149.6,281.5,156.9z"/>
			<path class="st65" d="M298.3,109.7c-0.4-3.3-1.4-6.1-3-8.2v0c-0.1,0-0.2-0.1-0.3-0.1c-3.8-1-8.5-0.2-13.5,2.7
				c-12.6,7.3-22.9,25-22.9,39.6c0,2.5,0.3,4.8,0.9,6.8c0.5,1.9,1.3,3.5,2.3,4.8c0.9,0.3,1.9,0.4,2.9,0.5c3.3,0.2,7-0.8,11-3.1
				c12.6-7.3,22.9-25,22.9-39.6C298.6,111.9,298.5,110.8,298.3,109.7z M274.5,144.9c-0.8,0.4-1.5,0.5-2,0.3c-0.7-0.3-1.1-1-1.1-2.1
				c0-2,1.4-4.4,3.1-5.4c1.3-0.8,2.5-0.5,2.9,0.7c0.1,0.3,0.2,0.7,0.2,1.1C277.6,141.5,276.2,143.9,274.5,144.9z M274.5,131.4
				c-0.5,0.3-1,0.4-1.5,0.4c-1,0-1.7-0.8-1.7-2.2c0-2,1.4-4.4,3.1-5.4c1.6-0.9,2.9-0.3,3.1,1.3c0,0.2,0,0.3,0,0.5
				C277.6,128,276.2,130.4,274.5,131.4z M288.6,136.8c-1.7,1-3.1,0.2-3.1-1.8c0-2,1.4-4.4,3.1-5.4c1.7-1,3.1-0.2,3.1,1.8
				S290.3,135.8,288.6,136.8z M291.5,119c-0.4,1.7-1.6,3.5-3,4.3c-0.1,0-0.1,0.1-0.2,0.1c-1.6,0.8-2.9,0-2.9-1.9
				c0-2,1.4-4.4,3.1-5.4c1.7-1,3.1-0.2,3.1,1.8C291.7,118.3,291.6,118.6,291.5,119z"/>
		</g>
		<g>
			<g>
				<path class="st64" d="M304.4,117.3c0,14.6-10.2,32.3-22.9,39.6c-4.8,2.8-9.3,3.6-13,2.8c0,0,0,0,0,0c-1.8-0.4-3.5-1.2-4.9-2.5
					c-0.7-0.6-1.3-1.2-1.8-2c0.9,0.3,1.9,0.4,2.9,0.5c3.3,0.2,7-0.8,11-3.1c3.3-1.9,6.5-4.5,9.8-8.2c0,0,12.7-14.5,13-31.4
					c0-1.8-0.2-3.4-0.2-3.4c-0.4-3.3-1.4-6.1-3-8.2c2.4,0.7,4.4,2.1,5.9,4.2c0.2,0.2,0.3,0.5,0.5,0.7
					C303.4,109.2,304.4,112.8,304.4,117.3z"/>
			</g>
		</g>
		<path class="st8" d="M254.9,157L254.9,157L254.9,157C254.8,157,254.9,157,254.9,157z"/>
		<g>
			<polygon class="st66" points="271.9,170.7 221,201.8 356.2,218.4 			"/>
			<polygon class="st67" points="221,201.8 221,244.9 356.2,218.4 			"/>
		</g>
	</g>
	<path class="st5" d="M20.9,459.3c2.7,2.4,7.1,2.6,10.1,0.5c3-2.1,4.1-6.4,2.7-9.7c3.8,0.2,7.7,0.5,11.3-0.9
		c3.6-1.3,6.7-4.7,6.4-8.5c5.1,0.5,10.4,0.5,15.1-1.6s8.5-6.9,7.9-12c7.1,2.6,16-2.8,16.9-10.4c6.2,0.8,12.7-2.1,16.3-7.2
		c0.5-0.7,0.9-1.4,1.7-1.8c0.7-0.4,1.5-0.4,2.2-0.5c2.3-0.2,4.5-0.7,6.6-1.5c0-4.2-4.7-6.6-8.9-7.1c-1.7-0.2-3.5-0.2-4.9,0.7
		c-1.4,0.9-2.2,3-1.1,4.3c-2.1-0.1-4.3-0.2-6.3,0.6c-2,0.8-3.6,2.8-3.3,4.9c-3.2-0.1-6.4-0.1-9.3,1.2c-2.9,1.4-5.1,4.6-4.2,7.6
		c-2.5-0.6-5.1-1.3-7.6-0.8c-2.5,0.5-5,2.3-5.2,4.9c-3-1.1-6.6-0.4-9.1,1.7s-3.6,5.6-3,8.7c-1.2-2.6-4.9-3.1-7.4-1.9
		c-2.6,1.2-4.3,3.7-5.9,6.1c-3.8-1.4-8.1-2.8-11.9-1.5c-3.9,1.3-6.4,6.7-3.5,9.6c0.4-0.7-0.4-1.6-1.2-1.6c-0.8,0-1.5,0.5-2.1,1
		c-1.7,1.5-2.7,3.5-3.5,5.5c-3.5-2.9-8.3,4.1-8.1,7.6C11.8,462.1,18.5,463.7,20.9,459.3z"/>
</g>
<g id="Grid" class="st68">
	<g class="st69">
		<g>
		</g>
		<g>
		</g>
		<g>
		</g>
		<g>
		</g>
		<g>
		</g>
		<g>
		</g>
		<g>
		</g>
		<g>
		</g>
		<g>
		</g>
		<g>
		</g>
		<g>
		</g>
		<g>
		</g>
		<g>
		</g>
		<g>
		</g>
		<g>
		</g>
		<g>
		</g>
		<g>
		</g>
		<g>
		</g>
		<g>
		</g>
		<g>
		</g>
		<g>
		</g>
		<g>
		</g>
		<g>
		</g>
		<g>
		</g>
		<g>
		</g>
		<g>
		</g>
		<g>
		</g>
		<g>
		</g>
		<g>
		</g>
		<g>
		</g>
		<g>
		</g>
		<g>
		</g>
		<g>
		</g>
		<g>
		</g>
		<g>
		</g>
		<g>
		</g>
		<g>
		</g>
		<g>
		</g>
		<g>
		</g>
		<g>
		</g>
		<g>
		</g>
		<g>
		</g>
		<g>
		</g>
		<g>
		</g>
		<g>
		</g>
		<g>
		</g>
		<g>
		</g>
		<g>
		</g>
		<g>
		</g>
		<g>
		</g>
		<g>
		</g>
		<g>
		</g>
		<g>
		</g>
		<g>
		</g>
		<g>
		</g>
		<g>
		</g>
		<g>
		</g>
		<g>
		</g>
		<g>
		</g>
		<g>
		</g>
		<g>
		</g>
		<g>
		</g>
		<g>
		</g>
		<g>
		</g>
		<g>
		</g>
		<g>
		</g>
		<g>
		</g>
		<g>
		</g>
		<g>
		</g>
		<g>
		</g>
		<g>
		</g>
		<g>
		</g>
		<g>
		</g>
		<g>
		</g>
		<g>
		</g>
		<g>
		</g>
		<g>
		</g>
		<g>
		</g>
		<g>
		</g>
		<g>
		</g>
		<g>
		</g>
		<g>
		</g>
		<g>
		</g>
		<g>
		</g>
		<g>
		</g>
		<g>
		</g>
		<g>
		</g>
		<g>
		</g>
		<g>
		</g>
		<g>
		</g>
		<g>
		</g>
	</g>
	<g class="st69">
		<g>
		</g>
		<g>
		</g>
		<g>
		</g>
		<g>
		</g>
		<g>
		</g>
		<g>
		</g>
		<g>
		</g>
		<g>
		</g>
		<g>
		</g>
		<g>
		</g>
		<g>
		</g>
		<g>
		</g>
		<g>
		</g>
		<g>
		</g>
		<g>
		</g>
		<g>
		</g>
		<g>
		</g>
		<g>
		</g>
		<g>
		</g>
		<g>
		</g>
		<g>
		</g>
		<g>
		</g>
		<g>
		</g>
		<g>
		</g>
		<g>
		</g>
		<g>
		</g>
		<g>
		</g>
		<g>
		</g>
		<g>
		</g>
		<g>
		</g>
		<g>
		</g>
		<g>
		</g>
		<g>
		</g>
		<g>
		</g>
		<g>
		</g>
		<g>
		</g>
		<g>
		</g>
		<g>
		</g>
		<g>
		</g>
		<g>
		</g>
		<g>
		</g>
		<g>
		</g>
		<g>
		</g>
		<g>
		</g>
		<g>
		</g>
		<g>
		</g>
		<g>
		</g>
		<g>
		</g>
		<g>
		</g>
		<g>
		</g>
		<g>
		</g>
		<g>
		</g>
		<g>
		</g>
		<g>
		</g>
		<g>
		</g>
		<g>
		</g>
		<g>
		</g>
		<g>
		</g>
		<g>
		</g>
		<g>
		</g>
		<g>
		</g>
		<g>
		</g>
		<g>
		</g>
		<g>
		</g>
		<g>
		</g>
		<g>
		</g>
		<g>
		</g>
		<g>
		</g>
		<g>
		</g>
		<g>
		</g>
		<g>
		</g>
		<g>
		</g>
		<g>
		</g>
		<g>
		</g>
		<g>
		</g>
		<g>
		</g>
		<g>
		</g>
		<g>
		</g>
		<g>
		</g>
		<g>
		</g>
		<g>
		</g>
		<g>
		</g>
		<g>
		</g>
		<g>
		</g>
		<g>
		</g>
		<g>
		</g>
		<g>
		</g>
		<g>
		</g>
		<g>
		</g>
		<g>
		</g>
		<g>
		</g>
	</g>
	<g class="st69">
		<g>
		</g>
		<g>
		</g>
		<g>
		</g>
		<g>
		</g>
		<g>
		</g>
		<g>
		</g>
		<g>
		</g>
		<g>
		</g>
		<g>
		</g>
		<g>
		</g>
		<g>
		</g>
		<g>
		</g>
		<g>
		</g>
		<g>
		</g>
		<g>
		</g>
		<g>
		</g>
		<g>
		</g>
		<g>
		</g>
		<g>
		</g>
		<g>
		</g>
		<g>
		</g>
		<g>
		</g>
		<g>
		</g>
		<g>
		</g>
		<g>
		</g>
		<g>
		</g>
		<g>
		</g>
		<g>
		</g>
		<g>
		</g>
		<g>
		</g>
		<g>
		</g>
		<g>
		</g>
		<g>
		</g>
		<g>
		</g>
		<g>
		</g>
		<g>
		</g>
		<g>
		</g>
		<g>
		</g>
		<g>
		</g>
		<g>
		</g>
		<g>
		</g>
		<g>
		</g>
		<g>
		</g>
		<g>
		</g>
		<g>
		</g>
		<g>
		</g>
		<g>
		</g>
		<g>
		</g>
		<g>
		</g>
		<g>
		</g>
		<g>
		</g>
		<g>
		</g>
		<g>
		</g>
		<g>
		</g>
		<g>
		</g>
		<g>
		</g>
		<g>
		</g>
		<g>
		</g>
		<g>
		</g>
		<g>
		</g>
		<g>
		</g>
		<g>
		</g>
		<g>
		</g>
		<g>
		</g>
		<g>
		</g>
		<g>
		</g>
		<g>
		</g>
		<g>
		</g>
		<g>
		</g>
		<g>
		</g>
		<g>
		</g>
		<g>
		</g>
		<g>
		</g>
		<g>
		</g>
		<g>
		</g>
		<g>
		</g>
		<g>
		</g>
		<g>
		</g>
		<g>
		</g>
		<g>
		</g>
		<g>
		</g>
		<g>
		</g>
		<g>
		</g>
		<g>
		</g>
		<g>
		</g>
		<g>
		</g>
		<g>
		</g>
		<g>
		</g>
		<g>
		</g>
		<g>
		</g>
		<g>
		</g>
	</g>
</g>
<g id="Layer_10">
</g>
</svg>
