<?xml version="1.0" encoding="utf-8"?>
<!-- Generator: Adobe Illustrator 23.0.0, SVG Export Plug-In . SVG Version: 6.00 Build 0)  -->
<svg version="1.1" xmlns="http://www.w3.org/2000/svg" xmlns:xlink="http://www.w3.org/1999/xlink" x="0px" y="0px"
	 viewBox="0 0 875 452.3" style="enable-background:new 0 0 875 452.3;" xml:space="preserve">
<style type="text/css">
	.st0{fill:url(#SVGID_1_);stroke:#FFFFFF;stroke-width:2;stroke-miterlimit:10;}
	.st1{fill:url(#SVGID_2_);stroke:#FFFFFF;stroke-width:2;stroke-miterlimit:10;}
	.st2{fill:url(#SVGID_3_);stroke:#FFFFFF;stroke-width:2;stroke-miterlimit:10;}
	.st3{fill:url(#SVGID_4_);stroke:#FFFFFF;stroke-width:2;stroke-miterlimit:10;}
	.st4{fill:url(#SVGID_5_);stroke:#FFFFFF;stroke-width:2;stroke-miterlimit:10;}
</style>
<g id="Labyrinth_text">
	<linearGradient id="SVGID_1_" gradientUnits="userSpaceOnUse" x1="127.8437" y1="468.8674" x2="120.8397" y2="72.7345">
		<stop  offset="0" style="stop-color:#FFFFFF"/>
		<stop  offset="0.5934" style="stop-color:#0CAFFF"/>
		<stop  offset="1" style="stop-color:#00ABFF"/>
	</linearGradient>
	<path class="st0" d="M27.1,53.1v16.3c0,0,19.8,3.5,19.8,14.9s0,225.3,0,225.3s-5.2,12.8-18.6,13.9v18.9H172l9.4,6.4h14.2l26.3-64.1
		l-11.6-9.8c0,0-20.2,28-43.6,31.2c-23.4,3.2-45.3-0.3-45.3-0.3s-15.3-6.9-15.3-25.7c0-18.8,0-197,0-197s13.6-11.7,21.3-10.9l0.6-19
		H27.1z"/>
	<linearGradient id="SVGID_2_" gradientUnits="userSpaceOnUse" x1="172.2883" y1="306.2957" x2="175.2353" y2="103.0796">
		<stop  offset="0" style="stop-color:#FFFFFF"/>
		<stop  offset="0.5771" style="stop-color:#00ABFF"/>
	</linearGradient>
	<path class="st1" d="M221.4,187.8c1-42.1-22-41.6-30.1-44.9c-7-2.9-23.8,0.6-28.4,1.6c-0.8,0.2-1.4,0.6-2,1.2
		c-6.3,7-15.4,6.5-20.6,5.4c-2.1-0.4-4.2,1.1-4.4,3.2l-2,19.4c-0.3,3.1,3.2,5.2,5.8,3.4c9.9-6.8,28.3-17.8,38.3-12.6
		c0.3,0.2,0.6,0.4,0.9,0.7c14.3,14.1-17.2,22.1-26.2,25.4c-9.1,3.3-36.3,17.2-27.2,52.6c8,31.2,50.6,15.5,60.5,11.4
		c1.3-0.5,2.8-0.3,3.8,0.6l8.2,7.1c0.7,0.6,1.5,0.9,2.4,0.9h18.1c2,0,3.6-1.5,3.7-3.5l1-16.6c0.1-1.3-0.6-2.5-1.7-3.3c0,0,0,0,0,0
		C218.6,238,220.4,229.9,221.4,187.8z M158.4,228c-4.5-5.7,4.8-13.5,11.6-18.2c2.6-1.8,6.2,0.3,5.8,3.5
		C173.4,232.2,164.5,235.6,158.4,228z"/>
	<linearGradient id="SVGID_3_" gradientUnits="userSpaceOnUse" x1="278.1641" y1="319.6826" x2="278.0966" y2="106.2882">
		<stop  offset="0" style="stop-color:#FFFFFF"/>
		<stop  offset="0.7486" style="stop-color:#00ABFF"/>
	</linearGradient>
	<path class="st2" d="M300,135.9l-30.7,20.5V64.2l-51.2,30.7l15.4,17.1v124.6l-6.8,11.1l3.4,15.7c0,0,56.3,13.3,95.6-18.2
		S300,135.9,300,135.9z M292.3,215.2c-1.7,11.9-27.3,16.6-27.3,16.6v-42.2c0,0,6.8-5.1,17.9-8.5C294,177.7,294,203.3,292.3,215.2z"
		/>
	<linearGradient id="SVGID_4_" gradientUnits="userSpaceOnUse" x1="532.8547" y1="459.5647" x2="530.5605" y2="113.8825">
		<stop  offset="0" style="stop-color:#FFFFFF"/>
		<stop  offset="0.8344" style="stop-color:#00ABFF"/>
	</linearGradient>
	<path class="st3" d="M845.6,192.9C832.8,145,826,140.8,826,140.8l-37.6,21.4l0.9-92.3L737.9,98v11.1l6.8,5.1l0.9,111.7l-22.2,3.7
		v-46.9l10.3-6.1l6.8-23.9l-17.9,0.9l0.9-47.9l-39.3,21.4v16.7l-0.6,4.7h-12V165l-24.1-23.2l-36.2,19.6l-0.4-14.3h-50.5v14.7
		l9.4,10.3v67l-9.4,5.8l-3.6-4.5l-3.6-92.9h-66.5l-14.3,8.9l-4.5-8.9h-72.3v17.8h7.9l-12.4,34.8l-15-34.1l9.4-1v-16.7l-60.2,0.6
		v18.2h11.9l32.4,81.6L352.5,288c0,0-81.1-29.9-122.9,17.9c-41.8,47.8,23.9,73.4,31.6,72.5c7.7-0.9,54.6,8.5,98.1-47.8
		c0,0,139.9,51.4,165.5,47.9c24.7,5.9,93.9,4.2,94.7-2.7c0.9-6.8,17.1-54.6,17.1-54.6l-16.2-10.2c0,0-16.2,29.9-84.5,26.5
		c-72.5-15.4-150.2-42.7-150.2-42.7l49.7-112.1v58.7l-9.3,10.9v15.7h62.1v-19.4l-12.2-9.7l0.6-51.6c0,0,4.9-7.9,12.8,0.6
		c7.9,8.5,7.9,8.5,7.9,8.5l10.9-29.4l4.3,6.9l1.2,65l-11.5,10.3v14l115.4-0.6l1.2-15.8l-11.5-8.5v-38.2l19.4-12.8
		c0,0,14.8,7.6,9.8,33.9s-11.1,39.6-11.1,39.6l12.1,10.3c0,0,34.7-48.6,32.8-71c-1.8-22.5-1.8-22.5-1.8-22.5l13.4,5.1
		c0,0-2.9,27.2,0,42.6c3,15.4,4.7,41.8,34.6,40.1l13.7-6c0,0-2.6,8.5,27.4,6c29.9-2.5,32.5-0.2,32.5-0.2v-15.1L785,198
		c0,0,14.5-14.5,18.8-7.7c4.3,6.8,12.8,59-12.8,86.3l-10.3,12l17.1,9.4C797.8,298.1,858.5,240.8,845.6,192.9z M283.6,347.9
		c-7.5,0.8-51.5,5.8-41.5-22.8c30.7-32,90.9-7.1,90.9-7.1C330.1,321.7,291.1,347.1,283.6,347.9z"/>
	<linearGradient id="SVGID_5_" gradientUnits="userSpaceOnUse" x1="516.4505" y1="113.2159" x2="558.603" y2="113.2159">
		<stop  offset="0" style="stop-color:#FFFFFF"/>
		<stop  offset="1" style="stop-color:#00ABFF"/>
	</linearGradient>
	<circle class="st4" cx="537.5" cy="113.2" r="21.1"/>
</g>
<g id="artwork">
</g>
</svg>
