<?xml version="1.0" encoding="utf-8"?>
<!-- Generator: Adobe Illustrator 23.0.0, SVG Export Plug-In . SVG Version: 6.00 Build 0)  -->
<svg version="1.1" id="art" xmlns="http://www.w3.org/2000/svg" xmlns:xlink="http://www.w3.org/1999/xlink" x="0px" y="0px"
	 viewBox="0 0 461.5 373.4" style="enable-background:new 0 0 461.5 373.4;" xml:space="preserve">
<style type="text/css">
	.st0{fill:#FFFFFF;stroke:#000000;stroke-miterlimit:10;}
	.st1{fill:#FFDBB9;stroke:#000000;stroke-miterlimit:10;}
	.st2{fill:#FF0462;stroke:#000000;stroke-miterlimit:10;}
	.st3{fill:#2200B0;stroke:#000000;stroke-miterlimit:10;}
	.st4{fill:#552400;stroke:#000000;stroke-miterlimit:10;}
	.st5{fill:#04FF59;stroke:#000000;stroke-miterlimit:10;}
	.st6{fill:#00D2D5;stroke:#000000;stroke-miterlimit:10;}
	.st7{fill:none;stroke:#0D0300;stroke-miterlimit:10;}
	.st8{fill:#DE00D1;stroke:#000000;stroke-miterlimit:10;}
	.st9{fill:#FFB43C;stroke:#000000;stroke-miterlimit:10;}
	.st10{fill:#170D00;stroke:#000000;stroke-miterlimit:10;}
	.st11{fill:none;stroke:#000000;stroke-width:2;stroke-miterlimit:10;}
</style>
<polygon class="st0" points="221.9,249.4 202,253.7 238.6,275.5 386.9,260.6 349.8,237.1 "/>
<path class="st1" d="M197.7,127.7c-0.4-1.4-0.8-2.5-1-3.1c-0.4-1.2-0.4-2.8,0-4.6c0,0,0-0.1,0-0.1c0.7-2.5-1.3-1.1-1.3-1.1
	s-13.6,0.6-18.9-4.5l0,0c-0.1,2.8-0.4,5.2-0.8,7.1l0,0C175.7,121.3,196.1,129.7,197.7,127.7z"/>
<path class="st2" d="M202,107.1c0,0-11.6-30.8-20.7-33C172.1,71.9,164,79,168.8,86s8.6,13,8.1,21.1c-0.5,8.1-0.5,8.1-0.5,8.1
	l11.9,5.9L202,107.1z"/>
<path class="st3" d="M175.9,121.7c0,0,9.5,2.5,12.2,3.4c2.7,0.9,6.4,46.7,6.4,46.7l-27.5,15.9l-14-7.2
	C153.1,180.5,173.8,146.8,175.9,121.7z"/>
<path class="st4" d="M193.6,184.8c9.2-25.5,5.1-15.2,16.3-15.2c11.2,0.1,15.1,9.3,20.5,40.2s9.3,20.7,15.5,6.6
	c6.3-14.1,62.3,5.3,62.3,5.3s11.5-1.8,11,2.7c-0.5,4.5,9.4,16.9,9.4,16.9s-0.7-7.1,11-13.9c11.7-6.8,14.8-20.3,14.1-24.2
	s-2.9-16.4-3.7-23.9c-0.7-7.5,5.9-15,11.1-22.8s-5.9-29-7.4-34.7c-1.5-5.7-2.9-15.3-2.9-22.4s-4.4-12.4-16.2-23.7
	s-11.1-5.3-23.6-6.8c-12.5-1.5-13.3-4.5-22.1-9.8c-8.8-5.3-19.9-3-31.7,0S228.3,84,223.2,88.5c-5.2,4.5-22.9,13.5-31.7,21
	c-8.8,7.5-2.9,27.1-3.7,41.1c-0.7,14-19.2,33.3-20.6,37.1C167.1,187.7,187.8,189,193.6,184.8"/>
<path class="st5" d="M230.9,222.4l25.7-35.8l2.2,28.2l23.3-26.6l3-3h9.7l3.4,17.8c0,0,16.5,35.9,22.8,37.2c6.3,1.3-19,1.3-19,1.3
	s-9.3-4.2-13.1-14.4c-3.8-10.2-8-19.3-7.2-20.6c0.8-1.4,3,17.7,3,17.7s-10.2,20.3-29.6,15.6S230.9,222.4,230.9,222.4z"/>
<polygon class="st6" points="299.9,210 294.9,214.1 327.1,253.6 334.7,257.8 333.4,251.1 "/>
<path class="st1" d="M318.4,248.2c0,0,3.1-4,5.6-4s9.1,2.9,10.7,3.3c1.6,0.4,2.9-5.8-1.8-8s-11.5-3.1-20.6-2
	c-9.1,1.1-32.1,4-35.5,3.9s-7.3,2.1-7.3,2.1v8.9l0.9,2c0,0,0.7,0.7,9.3,1.3c8.7,0.7,44.2-0.2,45.7-2.4c1.6-2.2,5.6-10.4-0.7-7.8
	L318.4,248.2z"/>
<path class="st2" d="M112.4,150.8c0,0,2.3,0.6,0,1.7c0,0-0.1,0-0.1,0.1c4.6-2.4,12.6-4,19.7-5.4c6.3-1.2,23.8-36.9,20.7-44.2
	c-3-7-5.8-7.9-19.9,3.7c-10.5,11.1-21.2,21.8-29,27.7l0,0C103.5,141.3,112.4,150.8,112.4,150.8z"/>
<path class="st7" d="M82.1,194.8c0.4-0.1,0.7-0.3,1.1-0.6c-5.6,1.9-11.7,4-18.1,6.2C64.7,200.7,64.7,200.8,82.1,194.8z"/>
<path class="st3" d="M130.4,180.5c-6.9,1.5-13.6,3.3-18.6,4.2c0,0-12,3.9-28.6,9.5c-0.3,0.2-0.7,0.4-1.1,0.6
	c-17.4,5.9-17.4,5.8-17,5.6c6.4-2.2,12.5-4.3,18.1-6.2c0.3-0.2,0.6-0.5,0.8-0.8c3.3-4.9,17.7-26.3,22.9-34.2c-2.5,0.1-9-19.9-9-19.9
	l0,0c-0.6,0.3-1.2,0.6-1.7,0.8c-7,2.5-49.6,45.5-52.9,52.9s-9.9,23.6,1.7,31s12,14.1,97.6,6.6c5.8-1.2,1.2-28.9-1.6-43.3
	C139.9,182.6,135.2,179.5,130.4,180.5z"/>
<path class="st1" d="M107,159.2c0.8-1.3,1.4-2.2,1.7-2.7c0.7-1.1,1.9-2.1,3.5-3c0,0,0.1-0.1,0.1-0.1c2.4-1.1,0-1.7,0-1.7
	s-9.2-10-8.8-17.3l0,0c-2.2,1.7-4.2,3.1-5.9,4l0,0C97.6,138.3,104.4,159.3,107,159.2z"/>
<path class="st5" d="M135.4,174.3c-5,2.9-2.1,13.1,0,20.2c2.1,7,11.6,28.5,9.7,33.5c-1.9,5,0.6,9.3,13.9,8.6
	c13.2-0.7,23.2-3.8,35-2.6c11.8,1.2,20,2.8,21.4,2.7c1.4-0.1-11.1-19.1-15.4-42.3c0,0,12.5,51.9,26.8,54.7
	c14.3,2.9,45.8,6.8,45.8,6.8s-2.9-10.4,0-13.6s-4.6,1.1-19.7-5c-15-6.1-20.7-7.9-24.3-29s-6.8-44.7-11.4-47.5s-15.7-8.2-20.4,4.3
	c-4.6,12.5-7.1,30-18.9,21.6c-11.8-8.4-8.7-9.4-24.9-10.9C136.9,174.3,135.4,174.3,135.4,174.3z"/>
<polygon class="st8" points="136.2,298.4 136.2,306.8 200.4,306.8 210.6,302.6 203,298.4 "/>
<polygon class="st9" points="430.3,266.2 426.9,258.5 367.9,283.9 360.2,291.8 368.9,292.6 "/>
<polygon class="st10" points="82.1,260.6 80.7,268.4 155,282.1 167.4,280.4 159.3,274.8 "/>
<path class="st1" d="M282.1,188.1l-23.3,26.6l-4.4-24.7l7.2-11.3C261.5,178.8,275.5,189.6,282.1,188.1z"/>
<path class="st1" d="M-21.4-60.2"/>
<path class="st1" d="M343.4,152.5c0,0-26.3-14.2-28.6-18.1c-2.4-3.9-3.1,9.1-3.1,9.1s-12.3-6.5-12.3-13s-32.4-5.3-32.4-5.3
	s-11.1,4.2-8.2,9.3s2.7,44.4,2.7,44.4S310.3,217.1,343.4,152.5z"/>
<path class="st11" d="M275.4,166.4c-0.1,3.1,1.7,6,4.2,7.9c2.5,1.9,5.5,2.8,8.5,3.5"/>
<path class="st11" d="M293.3,164.2c1.1-0.2,2.2-0.2,3.3-0.2c0.5,0,1.1,0,1.5,0.3c0.9,0.5,1.3,1.6,1.4,2.6s0,2,0.3,3"/>
<circle cx="282.1" cy="142.9" r="2.7"/>
<circle cx="320.4" cy="164" r="2.7"/>
</svg>
