<svg xmlns="http://www.w3.org/2000/svg" viewBox="0 0 2934.35 1308.45"><defs><style>.cls-1,.cls-2,.cls-4{fill:none;}.cls-1,.cls-2,.cls-4,.cls-5{stroke:#fff;stroke-miterlimit:10;}.cls-1{stroke-width:20px;}.cls-2{stroke-width:29px;}.cls-3,.cls-5{fill:#fff;}.cls-4{stroke-width:45px;}</style></defs><title>my-logo</title><g id="Layer_2" data-name="Layer 2"><path class="cls-1" d="M778.19,957.29a106.88,106.88,0,0,1,75.23,21.81"/><path class="cls-2" d="M53.22,523.56A8654.18,8654.18,0,0,1,1035,458.05"/><path class="cls-2" d="M591.13,555.11a2117.62,2117.62,0,0,1,28.57,467.34"/><path class="cls-2" d="M749.72,1024.38c-15.23-74,4.54-154.42,52.34-212.92a840.4,840.4,0,0,1,109.64,286"/><path class="cls-2" d="M971.66,1071.62l2-206.18a608.36,608.36,0,0,0,126.74,155.43,353.17,353.17,0,0,0,49.46-210"/><path class="cls-2" d="M1195.42,857.64c18.58,69.68,77.35,127.09,147.46,144"/><path class="cls-2" d="M1369.82,854.41a2560.72,2560.72,0,0,1-40.63,299.2"/><path class="cls-2" d="M1401.32,1094a782.9,782.9,0,0,0,78.21-208.06c47.4,75,98.92,133.2,146.32,208.2"/><path class="cls-2" d="M1487.78,1030.77a90.6,90.6,0,0,1,35.41-17.53"/><circle class="cls-3" cx="1745.9" cy="1080.63" r="47.91"/><path class="cls-4" d="M2192.67,1081.57V635.18s243.48-15.61,308.71,121.74C2552.07,863.65,2570.38,1115.9,2192.67,1081.57Z"/><path class="cls-5" d="M2391.49,1043.94s127.62,44.58,156.72-36.23,40.15-136.18,40.15-136.18L2624.68,999l32.6-182.22,43.94,83.71s55.87-101.22,66.78-154.9c9.94-48.87,30.38-138.84,30.38-138.84S3009.39,1335.07,2391.49,1043.94Z"/><path class="cls-3" d="M2197.26,655l79.81,0s84.47-260.82,23.45-303.07c0,0,56.33-56.32,112.65-46.94s-46.93-122-108-122-108,84.49-108,84.49l-93.87,4.69-65.71-117.34s-154.9,79.79-178.37,112.65,108,28.16,140.82,46.93,75.1,105.38,23.47,148.91S1925,552.92,1911,560.4s-4.7,63.81,70.4,73.19S2197.26,655,2197.26,655Z"/><path class="cls-3" d="M2164.69,645.12l-108.1,398.49s-146,20.88-162.16,38.57,197.45,50.73,197.45,50.73l58.79-34.85Z"/></g></svg>