<?xml version="1.0" encoding="utf-8"?>
<!-- Generator: Adobe Illustrator 23.0.1, SVG Export Plug-In . SVG Version: 6.00 Build 0)  -->
<svg version="1.1" id="Layer_2" xmlns="http://www.w3.org/2000/svg" xmlns:xlink="http://www.w3.org/1999/xlink" x="0px" y="0px"
	 viewBox="0 0 63.2 83.2" style="enable-background:new 0 0 63.2 83.2;" xml:space="preserve">
<style type="text/css">
	.st0{fill:#F19620;}
	.st1{stroke:#000000;stroke-linecap:round;stroke-miterlimit:10;}
	.st2{fill:#FFFFFF;stroke:#000000;stroke-linecap:round;stroke-miterlimit:10;}
</style>
<g>
	<g>
		<polygon class="st0" points="19.3,65.9 15.8,70.7 18.7,69.4 20.2,74.1 22.5,72.7 27.2,75.1 29.5,69.9 		"/>
		<polygon class="st0" points="42.9,66.6 46.5,71.4 43.5,70.1 42,74.7 39.8,73.3 35.1,75.7 32.7,70.6 		"/>
		<circle class="st1" cx="30.9" cy="53.8" r="17.7"/>
		<circle class="st2" cx="26.5" cy="48.5" r="5.4"/>
		<circle class="st2" cx="37.5" cy="49.1" r="4.1"/>
		<ellipse class="st2" cx="31.3" cy="66.1" rx="9.5" ry="5.3"/>
		<polygon class="st1" points="5.1,57.8 13.7,53 14.5,60.7 		"/>
		<polygon class="st1" points="56.5,56.8 47.9,52 47.1,59.7 		"/>
		<circle class="st1" cx="28.8" cy="49.6" r="2"/>
		<circle class="st1" cx="35.8" cy="50.2" r="1.5"/>
		<polygon class="st0" points="24.5,55.9 31.9,64.8 38.6,54.4 		"/>
	</g>
	<g>
		<path d="M12.1,17.5c0.2,0.1,0.4,0.3,0.5,0.6c0.2,0.4,0.2,0.8,0.1,1.2c-0.1,0.4-0.4,0.7-0.8,0.9c-0.4,0.2-0.9,0.2-1.3,0.1
			c-0.5-0.2-0.8-0.5-1-1c-0.2-0.4-0.3-0.9-0.2-1.3c0-0.5,0.2-1,0.5-1.4c0.3-0.5,0.6-0.9,1-1.3c0.4-0.4,1-0.8,1.5-1.1
			c0.5-0.3,1.1-0.4,1.6-0.5c0.5-0.1,1,0,1.5,0.1c0.5,0.1,0.9,0.3,1.3,0.6c0.4,0.3,0.7,0.7,0.9,1.1c0.3,0.6,0.4,1.2,0.3,1.9
			c-0.1,0.7-0.5,1.5-1,2.6c-0.3,0.4-0.4,0.8-0.5,1c-0.1,0.2-0.1,0.5-0.1,0.7c0,0.1,0,0.3,0.1,0.4c0,0.1,0.1,0.3,0.1,0.4
			c0,0.1,0.1,0.2,0.2,0.3l0.3,0.4c0,0.1,0.1,0.1,0.1,0.1c0,0,0.1,0.1,0.1,0.2c0.2,0.4,0.2,0.7,0.1,1.1c-0.1,0.3-0.4,0.6-0.7,0.8
			c-0.4,0.2-0.8,0.2-1.1,0.1c-0.4-0.1-0.7-0.4-0.9-0.9c-0.1-0.3-0.2-0.6-0.3-0.9c0-0.2,0-0.3,0-0.5c0-0.2,0-0.3,0.1-0.5
			c0-0.1,0.1-0.3,0.1-0.5c0.1-0.2,0.2-0.6,0.3-1l0.2-0.8c0.1-0.3,0.2-0.6,0.2-0.9c0.1-0.3,0.1-0.5,0.2-0.7c0.1-0.7,0.1-1.3-0.2-1.9
			c-0.3-0.6-0.7-1-1.2-1.2c-0.5-0.2-1-0.2-1.5,0c-0.6,0.3-1.1,0.9-1.3,1.7C11.6,17.3,11.9,17.4,12.1,17.5z M18.4,26.4
			c0.4,0.1,0.7,0.4,0.9,0.8c0.2,0.4,0.2,0.8,0.1,1.3c-0.1,0.4-0.4,0.7-0.8,0.9c-0.4,0.2-0.8,0.2-1.2,0.1c-0.4-0.1-0.7-0.4-0.9-0.8
			c-0.2-0.4-0.2-0.8-0.1-1.2c0.1-0.4,0.4-0.7,0.8-1C17.6,26.3,18,26.3,18.4,26.4z"/>
	</g>
	<g>
		<path d="M30.9,23.2c0.1,0.2,0.1,0.3,0.1,0.6c0,0.3-0.1,0.6-0.3,0.8c-0.2,0.2-0.5,0.3-0.8,0.3c-0.4,0-0.7-0.1-0.9-0.4
			c-0.3-0.3-0.4-0.6-0.4-1c0-0.3,0.1-0.7,0.3-1c0.2-0.3,0.4-0.6,0.8-0.8c0.3-0.2,0.7-0.4,1.1-0.5c0.4-0.1,0.9-0.2,1.4-0.2
			c0.4,0,0.9,0.1,1.2,0.2c0.4,0.1,0.7,0.3,1,0.5c0.3,0.2,0.5,0.5,0.6,0.8c0.2,0.3,0.2,0.7,0.2,1c0,0.5-0.1,0.9-0.4,1.4
			c-0.3,0.4-0.8,0.9-1.5,1.4c-0.3,0.2-0.5,0.4-0.7,0.5c-0.1,0.1-0.2,0.3-0.3,0.5c0,0.1-0.1,0.2-0.1,0.3c0,0.1,0,0.2,0,0.3
			c0,0.1,0,0.2,0,0.2l0.1,0.4c0,0,0,0.1,0,0.1c0,0,0,0.1,0,0.1c0,0.3-0.1,0.6-0.3,0.7c-0.2,0.2-0.4,0.3-0.7,0.3
			c-0.3,0-0.6-0.1-0.8-0.3c-0.2-0.2-0.3-0.5-0.3-0.9c0-0.2,0-0.5,0.1-0.7c0-0.1,0.1-0.2,0.2-0.3c0.1-0.1,0.1-0.2,0.2-0.3
			c0,0,0.1-0.1,0.3-0.3c0.1-0.1,0.3-0.3,0.5-0.6l0.4-0.5c0.2-0.2,0.3-0.4,0.5-0.5c0.1-0.2,0.2-0.3,0.3-0.4c0.3-0.4,0.5-0.8,0.5-1.3
			c0-0.5-0.1-0.9-0.4-1.2c-0.3-0.3-0.6-0.5-1-0.5c-0.5,0-1,0.2-1.4,0.7C30.6,22.9,30.8,23.1,30.9,23.2z M32.2,31.2
			c0.2,0.2,0.4,0.5,0.4,0.9c0,0.3-0.1,0.6-0.4,0.9c-0.2,0.2-0.5,0.3-0.9,0.3c-0.3,0-0.6-0.1-0.9-0.3c-0.2-0.2-0.3-0.5-0.3-0.9
			c0-0.3,0.1-0.6,0.3-0.9c0.2-0.2,0.5-0.3,0.9-0.4C31.7,30.8,31.9,30.9,32.2,31.2z"/>
	</g>
	<g>
		<path d="M45.8,26.4c0.3,0.5,0.3,1,0.2,1.5c-0.2,0.5-0.5,0.9-0.9,1.2c-0.5,0.3-1,0.3-1.5,0.2c-0.5-0.2-0.9-0.5-1.2-0.9
			c-0.3-0.5-0.3-1-0.2-1.5c0.2-0.5,0.5-0.9,0.9-1.2c0.5-0.3,1-0.3,1.5-0.2C45.2,25.7,45.6,26,45.8,26.4z M47.3,13.5
			c0.1,0.3,0.1,0.6,0,0.9c-0.1,0.5-0.4,0.8-0.9,1.1c-0.4,0.2-0.9,0.3-1.4,0.1c-0.5-0.2-1-0.5-1.2-1c-0.3-0.5-0.3-1.1-0.2-1.7
			c0.2-0.5,0.4-1,0.9-1.4c0.4-0.4,0.9-0.7,1.5-0.9c0.6-0.2,1.3-0.3,2-0.3c0.7,0,1.5,0.1,2.2,0.3c0.7,0.2,1.3,0.5,1.8,0.9
			c0.5,0.4,1,0.8,1.3,1.3c0.3,0.5,0.5,1,0.6,1.5c0.1,0.6,0.1,1.1-0.1,1.7c-0.2,0.8-0.7,1.4-1.3,1.9c-0.6,0.5-1.6,1-3,1.5
			c-0.6,0.2-1,0.4-1.3,0.5c-0.2,0.1-0.5,0.3-0.7,0.6c-0.1,0.1-0.2,0.3-0.3,0.4c-0.1,0.2-0.1,0.3-0.2,0.5c0,0.1,0,0.2-0.1,0.4l0,0.6
			c0,0.1,0,0.2,0,0.2c0,0.1,0,0.1-0.1,0.2c-0.1,0.5-0.4,0.8-0.8,1c-0.4,0.2-0.8,0.2-1.3,0.1c-0.5-0.1-0.8-0.4-1-0.8
			c-0.2-0.4-0.2-0.9-0.1-1.5c0.1-0.3,0.3-0.7,0.5-1c0.1-0.2,0.3-0.3,0.4-0.4c0.1-0.1,0.3-0.3,0.5-0.4c0.1-0.1,0.3-0.2,0.5-0.3
			c0.3-0.2,0.6-0.4,1-0.7l0.8-0.5c0.4-0.2,0.7-0.4,0.9-0.6c0.3-0.2,0.5-0.3,0.7-0.5c0.7-0.5,1.1-1.1,1.3-1.8c0.2-0.7,0.2-1.4-0.1-2
			c-0.3-0.6-0.7-1-1.3-1.2c-0.8-0.2-1.6-0.1-2.5,0.5C47.1,12.9,47.3,13.2,47.3,13.5z"/>
	</g>
</g>
</svg>
