<svg xmlns="http://www.w3.org/2000/svg" id="Layer_1" viewBox="0 0 360 255.7" width="360" height="255.7"><style>.st0{fill:none;stroke:#f8bccb;stroke-miterlimit:10}.st1{fill:#d9e5ed}.st2{fill:#9bafba}.st3{fill:#fff}.st4,.st5{stroke:#000;stroke-miterlimit:10}.st4{fill:#fff;stroke-width:.25}.st5{stroke-width:.5}.st6{fill:#e36f25}.st7{fill:#fff;stroke:#000;stroke-width:.5;stroke-miterlimit:10}</style><path d="M-1032.5-1777.9h2335.1v3608.8h-2335.1z" class="st0"/><path d="M198.7 73.7l-134 6.5-9.3 20.1 4.2 46 128.2 82.6 35.5-16.7-4.1-45.6 32.5-65.1L206.2 73z" class="st1"/><path d="M201 98.5L67 105l-9.4 20.1 4.2 46 128.3 82.6 35.5-16.7-4.2-45.5 32.6-65.2-3.3-35.9z" class="st2"/><path d="M250.1 83.2l1.6 18.3-41.9 86.6-3-32.3z" class="st2"/><path d="M196.8 53.3L62.9 59.8l-9.4 20.1 4.2 46L186 208.5l35.5-16.7-4.2-45.5 32.6-65.2-45.6-28.5z" class="st3"/><path d="M196.8 53.3L62.9 59.8l-9.4 20.1 4.2 46L186 208.5l35.5-16.7-4.2-45.5 32.6-65.2-45.6-28.5z" class="st4"/><path d="M179.8 89.6s11.6 10.3 29.2-5.7c0 0-8.6-.1-6.2-4.3 2.4-4.3 7.8-25 3.1-28.6-4.7-3.6-23.2-14.4-23.2-14.4l-2.9 53z"/><path d="M166.5 30l4.7 14.3s-10.4 14.3-18.3 15.2c-7.8.9-6.5 4.1-8.7 5.1-2.3 1.1-.9-6.8 0-9.8.9-3 15-22.9 22.3-24.8z" class="st5"/><path d="M169.4 80.7l3.6 2.7-4.7 8.6-8.1 6.5 1.5-4.5-6.7 2 2.9-4.2-6.5 2.2 15.1-7.7zm13.5 8.9l-3.2 10-11.5 2.9 7.3.7-1.7 3.8 5.6-1.3v4.7l4.3-4.7s2.7-1.4 3.6-2c.9-.7-1.8-6.4-1.8-6.4l1.2-7.7h-3.8z" class="st6"/><path d="M170.5 21.9S153 44.2 162 67.5 184.3 94 184.3 94s18.3-16.2 9-37.6c0 0-3.1-4-4.1-11.8s1.8-22 1.8-22l-20.5-.7z" class="st7"/><path d="M166.9 22.3c-3-14.4 10.4-19.7 15.8-19.6 3.9.1 7.1 3.2 9.8 6.1 1.6 1.7 3 3.6 3.8 5.8.8 2.1 1 4.4 1.4 6.6.5 2.8 1.2 5.6 2.3 8.3.5 1.2 1.1 2.5 2 3.4 1.1 1.1 2.5 1.8 3.8 2.5 3.6 2.1 6.5 5.2 8.9 8.5 5 6.7 8.7 15.4 6.5 23.5-1.5-2.6-1.4-6.1-3.5-8.2-.8-.8-2-1.3-3-1.7-4.6-1.8-9.4-3.2-13.8-5.4s-8.6-5.3-10.8-9.8c-1.6-3.2-2-6.8-2-10.3 0-1.8.2-3.7-.3-5.5-.4-1.8-1.6-3.5-3.4-4-1.2-.3-2.4-.1-3.6.2-3.7 1.1-12.4 6.8-13.9-.4z" class="st5"/><path d="M173.5 18.7s1.8-4.9-1.8-6.3c-4.5-1.7-16.7 4.3-18.5 12.6 0 0 10.8-8.8 20.3-6.3z" class="st6"/><path d="M192.3 180.9s6.6 5.8 16.5-3.2c0 0-4.8 0-3.5-2.4 1.3-2.4 4.4-14.1 1.7-16.1s-13.1-8.1-13.1-8.1l-1.6 29.8z"/><path d="M184.9 147.2l2.7 8.1s-5.9 8-10.3 8.6c-4.4.5-3.7 2.3-4.9 2.9-1.3.6-.5-3.9 0-5.5.4-1.7 8.4-13 12.5-14.1z" class="st5"/><path d="M186.5 175.9l2 1.5-2.6 4.8-4.6 3.7.9-2.5-3.8 1.1 1.6-2.4-3.7 1.3 8.5-4.4zm7.6 5l-1.8 5.7-6.5 1.7 4.1.4-1 2.2 3.2-.8v2.7l2.4-2.7s1.5-.8 2-1.1c.5-.4-1-3.6-1-3.6l.7-4.4h-2.1z" class="st6"/><path d="M187.1 142.7s-9.9 12.6-4.8 25.8 12.6 15 12.6 15 10.3-9.2 5.1-21.2c0 0-1.8-2.2-2.3-6.6-.5-4.4 1-12.4 1-12.4l-11.6-.6z" class="st7"/><path d="M185.1 142.9c-1.7-8.1 5.9-11.1 8.9-11.1 2.2 0 4 1.8 5.5 3.5.9 1 1.7 2 2.2 3.2.5 1.2.6 2.5.8 3.7.3 1.6.7 3.2 1.3 4.7.3.7.6 1.4 1.1 1.9.6.6 1.4 1 2.1 1.4 2 1.2 3.6 2.9 5 4.8 2.8 3.8 4.9 8.7 3.7 13.3-.8-1.5-.8-3.4-2-4.6-.5-.5-1.1-.7-1.7-1-2.6-1-5.3-1.8-7.8-3s-4.9-3-6.1-5.5c-.9-1.8-1.1-3.8-1.1-5.8 0-1 .1-2.1-.1-3.1s-.9-2-1.9-2.3c-.7-.2-1.4-.1-2 .1-2.1.7-7 3.9-7.9-.2z" class="st5"/><path d="M188.8 140.9s1-2.8-1-3.5c-2.5-1-9.4 2.4-10.4 7.1-.1-.1 6-5 11.4-3.6z" class="st6"/></svg>