<?xml version="1.0" encoding="utf-8"?>
<!-- Generator: Adobe Illustrator 23.0.0, SVG Export Plug-In . SVG Version: 6.00 Build 0)  -->
<svg version="1.1" id="Layer_1" xmlns="http://www.w3.org/2000/svg" xmlns:xlink="http://www.w3.org/1999/xlink" x="0px" y="0px"
	 viewBox="0 0 360 255.7" style="enable-background:new 0 0 360 255.7;" xml:space="preserve">
<style type="text/css">
	.st0{fill:none;stroke:#F8BCCB;stroke-miterlimit:10;}
	.st1{fill:#D9E5ED;}
	.st2{fill:#9BAFBA;}
	.st3{fill:#FFFFFF;}
	.st4{fill:#FFFFFF;stroke:#000000;stroke-width:0.25;stroke-miterlimit:10;}
	.st5{stroke:#000000;stroke-width:0.5;stroke-miterlimit:10;}
	.st6{fill:#E36F25;}
	.st7{fill:#FFFFFF;stroke:#000000;stroke-width:0.5;stroke-miterlimit:10;}
</style>
<rect x="-1032.5" y="-1777.9" class="st0" width="2335.1" height="3608.8"/>
<polygon class="st1" points="198.7,73.7 64.7,80.2 55.4,100.3 59.6,146.3 187.8,228.9 223.3,212.2 219.2,166.6 251.7,101.5 
	206.2,73 "/>
<polygon class="st2" points="201,98.5 67,105 57.6,125.1 61.8,171.1 190.1,253.7 225.6,237 221.4,191.5 254,126.3 250.7,90.4 "/>
<polygon class="st2" points="250.1,83.2 251.7,101.5 209.8,188.1 206.8,155.8 "/>
<polygon class="st3" points="196.8,53.3 62.9,59.8 53.5,79.9 57.7,125.9 186,208.5 221.5,191.8 217.3,146.3 249.9,81.1 204.3,52.6 
	"/>
<polygon class="st4" points="196.8,53.3 62.9,59.8 53.5,79.9 57.7,125.9 186,208.5 221.5,191.8 217.3,146.3 249.9,81.1 204.3,52.6 
	"/>
<g>
	<path d="M179.8,89.6c0,0,11.6,10.3,29.2-5.7c0,0-8.6-0.1-6.2-4.3c2.4-4.3,7.8-25,3.1-28.6c-4.7-3.6-23.2-14.4-23.2-14.4L179.8,89.6
		z"/>
	<path class="st5" d="M166.5,30l4.7,14.3c0,0-10.4,14.3-18.3,15.2c-7.8,0.9-6.5,4.1-8.7,5.1c-2.3,1.1-0.9-6.8,0-9.8
		C145.1,51.8,159.2,31.9,166.5,30z"/>
	<polygon class="st6" points="169.4,80.7 173,83.4 168.3,92 160.2,98.5 161.7,94 155,96 157.9,91.8 151.4,94 166.5,86.3 	"/>
	<path class="st6" d="M182.9,89.6l-3.2,10l-11.5,2.9l7.3,0.7l-1.7,3.8l5.6-1.3v4.7l4.3-4.7c0,0,2.7-1.4,3.6-2
		c0.9-0.7-1.8-6.4-1.8-6.4l1.2-7.7H182.9z"/>
	<path class="st7" d="M170.5,21.9c0,0-17.5,22.3-8.5,45.6S184.3,94,184.3,94s18.3-16.2,9-37.6c0,0-3.1-4-4.1-11.8s1.8-22,1.8-22
		L170.5,21.9z"/>
	<path class="st5" d="M166.9,22.3c-3-14.4,10.4-19.7,15.8-19.6c3.9,0.1,7.1,3.2,9.8,6.1c1.6,1.7,3,3.6,3.8,5.8
		c0.8,2.1,1,4.4,1.4,6.6c0.5,2.8,1.2,5.6,2.3,8.3c0.5,1.2,1.1,2.5,2,3.4c1.1,1.1,2.5,1.8,3.8,2.5c3.6,2.1,6.5,5.2,8.9,8.5
		c5,6.7,8.7,15.4,6.5,23.5c-1.5-2.6-1.4-6.1-3.5-8.2c-0.8-0.8-2-1.3-3-1.7c-4.6-1.8-9.4-3.2-13.8-5.4c-4.4-2.2-8.6-5.3-10.8-9.8
		c-1.6-3.2-2-6.8-2-10.3c0-1.8,0.2-3.7-0.3-5.5c-0.4-1.8-1.6-3.5-3.4-4c-1.2-0.3-2.4-0.1-3.6,0.2C177.1,23.8,168.4,29.5,166.9,22.3z
		"/>
	<path class="st6" d="M173.5,18.7c0,0,1.8-4.9-1.8-6.3c-4.5-1.7-16.7,4.3-18.5,12.6C153.2,25,164,16.2,173.5,18.7z"/>
</g>
<g>
	<path d="M192.3,180.9c0,0,6.6,5.8,16.5-3.2c0,0-4.8,0-3.5-2.4c1.3-2.4,4.4-14.1,1.7-16.1s-13.1-8.1-13.1-8.1L192.3,180.9z"/>
	<path class="st5" d="M184.9,147.2l2.7,8.1c0,0-5.9,8-10.3,8.6c-4.4,0.5-3.7,2.3-4.9,2.9c-1.3,0.6-0.5-3.9,0-5.5
		C172.8,159.6,180.8,148.3,184.9,147.2z"/>
	<polygon class="st6" points="186.5,175.9 188.5,177.4 185.9,182.2 181.3,185.9 182.2,183.4 178.4,184.5 180,182.1 176.3,183.4 
		184.8,179 	"/>
	<path class="st6" d="M194.1,180.9l-1.8,5.7l-6.5,1.7l4.1,0.4l-1,2.2l3.2-0.8v2.7l2.4-2.7c0,0,1.5-0.8,2-1.1c0.5-0.4-1-3.6-1-3.6
		l0.7-4.4H194.1z"/>
	<path class="st7" d="M187.1,142.7c0,0-9.9,12.6-4.8,25.8s12.6,15,12.6,15s10.3-9.2,5.1-21.2c0,0-1.8-2.2-2.3-6.6
		c-0.5-4.4,1-12.4,1-12.4L187.1,142.7z"/>
	<path class="st5" d="M185.1,142.9c-1.7-8.1,5.9-11.1,8.9-11.1c2.2,0,4,1.8,5.5,3.5c0.9,1,1.7,2,2.2,3.2c0.5,1.2,0.6,2.5,0.8,3.7
		c0.3,1.6,0.7,3.2,1.3,4.7c0.3,0.7,0.6,1.4,1.1,1.9c0.6,0.6,1.4,1,2.1,1.4c2,1.2,3.6,2.9,5,4.8c2.8,3.8,4.9,8.7,3.7,13.3
		c-0.8-1.5-0.8-3.4-2-4.6c-0.5-0.5-1.1-0.7-1.7-1c-2.6-1-5.3-1.8-7.8-3c-2.5-1.2-4.9-3-6.1-5.5c-0.9-1.8-1.1-3.8-1.1-5.8
		c0-1,0.1-2.1-0.1-3.1s-0.9-2-1.9-2.3c-0.7-0.2-1.4-0.1-2,0.1C190.9,143.8,186,147,185.1,142.9z"/>
	<path class="st6" d="M188.8,140.9c0,0,1-2.8-1-3.5c-2.5-1-9.4,2.4-10.4,7.1C177.3,144.4,183.4,139.5,188.8,140.9z"/>
</g>
</svg>
