<svg xmlns="http://www.w3.org/2000/svg"><symbol id="facebook" viewBox="0 0 216 216"><path d="M201.4 108.1a89.2 89.2 0 0 1-62.4 85v-63l19.5-1v-23.3h-19.9c0-1.9-.1-3.7 0-5.5s.3-6.3.7-9.4 1.9-5.9 5.1-7.2 8.6-1.4 13-1l6.5.9V58.7c-4.4-.7-9-1.8-13.6-2-6.6-.3-13.1-.4-19.6 1.6s-13.3 6.2-17.5 12.5-6.9 16-7.3 24.8c-.2 3.1 0 6.3 0 9.6H92.3v24.9h13.9v66.8a89 89 0 1 1 95.2-88.8z"/></symbol><symbol id="instagram" viewBox="0 0 216 216"><path fill="none" d="M99.8 79.3a23.9 23.9 0 1 0 23.9 23.9 23.9 23.9 0 0 0-23.9-23.9z"/><path d="M123.9 53.8H77.1a25.6 25.6 0 0 0-25.6 25.6V130a25.6 25.6 0 0 0 25.6 25.5h46.8a25.6 25.6 0 0 0 25.6-25.5V79.4a25.6 25.6 0 0 0-25.6-25.6zm-24.1 73.3a23.9 23.9 0 1 1 23.9-23.9 23.9 23.9 0 0 1-23.9 23.9zm29.8-34.4a6 6 0 0 1-5.9-6 6 6 0 0 1 11.9 0 6 6 0 0 1-6 6z"/></symbol><symbol id="twitter" viewBox="0 0 216 216"><path d="M27.3 156.8l4.3.4c4.2 0 8.4.2 12.6-.1 9.3-.5 18.6-1.8 26.9-6.5a38.3 38.3 0 0 0 7.6-5.8c-13.4-2.3-23.8-8.7-30.8-20.6l10.9-2.3c-6.1-3.2-11.4-6.8-15.3-12A31.6 31.6 0 0 1 36.9 92l15.2 3C35.9 83.7 35.3 68.8 41.5 52c2.5 2.3 4.8 4.4 7.3 6.3 4.5 3.7 9 7.7 13.9 11s12.1 7.8 18.5 11.3a50.1 50.1 0 0 0 16.6 5.6 21.2 21.2 0 0 0 10-.5v-6.3c.4-8.9 2.5-17.3 8.2-24.4a22.5 22.5 0 0 1 13.4-8c9.4-1.8 18.2.5 26.9 3.4a10 10 0 0 1 2.6 1c4 2.8 8.3 2 12.3.6a106.6 106.6 0 0 0 10.9-4.9 12.4 12.4 0 0 0 3.5-3c-2.4 3.7-4.7 7.5-7.3 11s-5.7 6.9-8.7 10.4l19.7-7.2.3.3a12.8 12.8 0 0 1-2 2.6c-4.8 4.8-9.6 9.7-14.7 14.3-1.7 1.5-2 3-2.2 5a134.4 134.4 0 0 1-1.8 14.2c-1.2 6.8-2.5 13.6-4.3 20.2a91.6 91.6 0 0 1-13.5 28.4 72.3 72.3 0 0 1-12.9 13.6 59.8 59.8 0 0 1-23 11.7 81.6 81.6 0 0 1-12.9 2.5 91.2 91.2 0 0 1-13.8.7c-6.3-.3-12.5-1.2-18.8-2.1-10.8-1.5-21.2-4.7-31.4-8.3-3.7-1.2-7.4-2.7-11.1-4z"/></symbol></svg>
