<?xml version="1.0" encoding="utf-8"?>
<!-- Generator: Adobe Illustrator 23.0.0, SVG Export Plug-In . SVG Version: 6.00 Build 0)  -->
<svg version="1.1" id="Layer_1" xmlns="http://www.w3.org/2000/svg" xmlns:xlink="http://www.w3.org/1999/xlink" x="0px" y="0px"
	 viewBox="0 0 360 360" style="enable-background:new 0 0 360 360;" xml:space="preserve">
<style type="text/css">
	.st0{fill:none;}
	.st1{fill:#FFFFFF;}
</style>
<path class="st0" d="M125.8,302.9l11.4-19.5c-2.5-1-4.9-2-7.3-3.1L125.8,302.9z"/>
<path class="st1" d="M187.9,268.7l-13,23c2.5,0.1,5,0.2,7.5,0.2c22.9,0,44.3-6.2,62.6-16.9l-1.2-6.3L187.9,268.7z"/>
<path class="st1" d="M194.5,174.5h-45.4l-19.2,105.9c2.4,1.1,4.8,2.1,7.3,3.1l82.3-140.8h38L279.8,244
	c14.8-19.5,23.5-43.6,23.5-69.7c0-64.9-54.2-117.6-121-117.6c-55.5,0-102.2,36.3-116.5,85.8l147.7,0.3L194.5,174.5z"/>
<path class="st1" d="M61.4,174.5c0,29.5,11.2,56.4,29.7,77l14-77H61.4z"/>
<path class="st1" d="M202.2,241.6h37.2l-9.4-49.5L202.2,241.6z"/>
</svg>
